<svg width="128" height="128" viewBox="0 0 128 128" fill="none" xmlns="http://www.w3.org/2000/svg">
<path d="M64 128C99.3462 128 128 99.3462 128 64C128 28.6538 99.3462 0 64 0C28.6538 0 0 28.6538 0 64C0 99.3462 28.6538 128 64 128Z" fill="url(#paint0_linear_2816_15372)"/>
<path d="M37.9534 44.7273L31.4335 84H26.6778L32.3539 49.7131H32.1238L21.4619 56.0795L22.3057 51.2472L33.1977 44.7273H37.9534ZM38.1597 68.2756C38.4921 66.1534 39.1121 64.4467 40.0198 63.1555C40.9403 61.8643 42.0141 60.9247 43.2414 60.3366C44.4815 59.7486 45.7535 59.4545 47.0574 59.4545C48.3614 59.4545 49.512 59.7422 50.5091 60.3175C51.5063 60.88 52.6057 61.7685 53.8074 62.983C54.6128 63.7884 55.2904 64.3636 55.8401 64.7088C56.4026 65.0412 57.029 65.2074 57.7194 65.2074C58.8316 65.2074 59.7648 64.8111 60.5191 64.0185C61.2861 63.2259 61.7847 62.0625 62.0148 60.5284H66.1569C65.8501 62.6506 65.2428 64.3445 64.3351 65.6101C63.4275 66.8629 62.3536 67.7706 61.1136 68.3331C59.8735 68.8828 58.6015 69.1577 57.2975 69.1577C55.9935 69.1577 54.8557 68.87 53.8841 68.2947C52.9253 67.7195 51.8387 66.831 50.6242 65.6293C49.8188 64.8239 49.1157 64.2869 48.5148 64.0185C47.9268 63.7372 47.2876 63.5966 46.5972 63.5966C45.5617 63.5966 44.654 63.9545 43.8742 64.6705C43.0944 65.3864 42.5702 66.5881 42.3018 68.2756H38.1597ZM61.3582 84L61.9719 80.5483L77.2361 66.358C79.0259 64.696 80.5152 63.245 81.7041 62.005C82.9058 60.7649 83.8391 59.6016 84.5038 58.5149C85.1814 57.4283 85.6224 56.2841 85.827 55.0824C86.0571 53.7017 85.9357 52.5064 85.4626 51.4964C84.9896 50.4865 84.2418 49.7067 83.219 49.157C82.1963 48.6072 80.969 48.3324 79.5372 48.3324C78.0287 48.3324 76.6544 48.6456 75.4143 49.272C74.1743 49.8857 73.1452 50.755 72.327 51.88C71.5088 52.9922 70.9719 54.2898 70.7162 55.7727H66.1906C66.5741 53.4716 67.4499 51.4517 68.8178 49.7131C70.1984 47.9744 71.8923 46.6193 73.8994 45.6477C75.9193 44.6761 78.0798 44.1903 80.381 44.1903C82.6821 44.1903 84.6317 44.6761 86.2297 45.6477C87.8277 46.6193 88.9847 47.9297 89.7006 49.5788C90.4165 51.228 90.6082 53.0625 90.2759 55.0824C90.0202 56.5398 89.5152 57.9524 88.7609 59.3203C88.0067 60.6882 86.8497 62.2159 85.2901 63.9034C83.7432 65.5781 81.6466 67.6236 79.0003 70.0398L68.6452 79.4744L68.5685 79.7812H86.8242L86.1338 84H61.3582ZM106.82 44.7273L100.3 84H95.5447L101.221 49.7131H100.991L90.3288 56.0795L91.1725 51.2472L102.064 44.7273H106.82Z" fill="black"/>
<defs>
<linearGradient id="paint0_linear_2816_15372" x1="0" y1="0" x2="128" y2="128" gradientUnits="userSpaceOnUse">
<stop stop-color="#0099FF"/>
<stop offset="1" stop-color="#00FFFF"/>
</linearGradient>
</defs>
</svg>
