<svg width="64" height="64" viewBox="0 0 64 64" fill="none" xmlns="http://www.w3.org/2000/svg">
<g clip-path="url(#clip0_2855_11119)">
<circle cx="32" cy="32" r="30.5" stroke="white" stroke-width="3"/>
<path d="M16.8918 19C17.9367 19 18.8962 19.1182 19.7705 19.3547C20.6447 19.5912 21.3804 19.8986 21.9774 20.2769C22.3399 20.5371 22.5638 20.8563 22.6491 21.2347C22.7557 21.5894 22.7238 21.9677 22.5532 22.3697C22.3826 22.7954 22.1267 23.0791 21.7855 23.221C21.4657 23.3629 21.0925 23.3392 20.6661 23.1501C20.0903 22.8427 19.4826 22.618 18.8429 22.4761C18.2032 22.3106 17.5102 22.2278 16.7639 22.2278C13.3735 22.2278 11.5077 25.1601 11.1665 31.0246C11.6996 30.1023 12.4779 29.3929 13.5014 28.8963C14.5249 28.3761 15.6018 28.116 16.7319 28.116C17.8407 28.116 18.8323 28.3051 19.7065 28.6835C20.6021 29.0618 21.3591 29.6057 21.9774 30.3151C22.5958 31.0246 23.0649 31.8759 23.3848 32.869C23.726 33.8622 23.8966 34.9736 23.8966 36.2033V36.7708C23.8966 38.0005 23.7046 39.1237 23.3208 40.1405C22.9583 41.1337 22.4252 41.9968 21.7216 42.7299C21.0392 43.4393 20.2076 43.995 19.2267 44.397C18.2672 44.799 17.201 45 16.0282 45C13.4055 45 11.4117 44.0778 10.047 42.2333C8.68235 40.3888 8 37.7285 8 34.2524V33.2592C8 30.4925 8.22389 28.1987 8.67169 26.3779C9.11948 24.5571 9.73785 23.1028 10.5268 22.015C11.3158 20.9036 12.254 20.1232 13.3415 19.6739C14.429 19.2246 15.6124 19 16.8918 19ZM16.0922 31.2374C15.3032 31.2374 14.6102 31.3674 14.0132 31.6276C13.4161 31.8877 12.915 32.2424 12.5099 32.6917C12.1047 33.141 11.7956 33.673 11.5823 34.2879C11.3904 34.879 11.2945 35.5057 11.2945 36.1678V36.4516C11.2945 38.0832 11.7103 39.3838 12.5419 40.3533C13.3735 41.2992 14.5143 41.7722 15.9643 41.7722C17.4569 41.7722 18.6297 41.3347 19.4826 40.4598C20.3356 39.5848 20.762 38.3079 20.762 36.6289V36.3806C20.762 32.9518 19.2054 31.2374 16.0922 31.2374Z" fill="white"/>
<path d="M35.5823 19.4966C35.9235 19.7567 36.1474 20.0878 36.254 20.4898C36.3606 20.8681 36.2647 21.2938 35.9661 21.7667L26.9144 36.2742H34.6548V29.7831C34.6548 29.2628 34.8147 28.8845 35.1345 28.648C35.4544 28.4115 35.8169 28.2933 36.222 28.2933C36.6485 28.2933 37.0216 28.4115 37.3415 28.648C37.6613 28.8845 37.8213 29.2628 37.8213 29.7831V36.2742H40.1562C40.5613 36.2742 40.8385 36.4161 40.9878 36.6999C41.1584 36.9836 41.2437 37.3265 41.2437 37.7285C41.2437 38.1305 41.1584 38.4734 40.9878 38.7572C40.8385 39.0409 40.5613 39.1828 40.1562 39.1828H37.8213V43.2974C37.8213 43.8176 37.6613 44.196 37.3415 44.4325C37.0216 44.6689 36.6485 44.7872 36.222 44.7872C35.8169 44.7872 35.4544 44.6689 35.1345 44.4325C34.8147 44.196 34.6548 43.8176 34.6548 43.2974V39.1828H25.1552C24.4089 39.1828 23.8758 39.0409 23.556 38.7572C23.2361 38.4734 23.0762 38.0359 23.0762 37.4447C23.0762 37.2083 23.1188 36.9718 23.2041 36.7353C23.2894 36.4752 23.5346 36.0141 23.9398 35.352L33.5993 19.9222C33.8551 19.5202 34.1643 19.2956 34.5268 19.2483C34.8893 19.1774 35.2411 19.2601 35.5823 19.4966Z" fill="white"/>
<path d="M47.8438 22.9372C48.2063 22.9372 48.5262 23.0437 48.8034 23.2565C49.1019 23.4693 49.2512 23.8122 49.2512 24.2851V30.5989H54.9125C55.275 30.5989 55.5415 30.7408 55.7121 31.0246C55.904 31.2847 56 31.6157 56 32.0177C56 32.4197 55.904 32.7626 55.7121 33.0464C55.5415 33.3301 55.275 33.472 54.9125 33.472H49.2512V40.3179C49.2512 40.7908 49.1019 41.1337 48.8034 41.3465C48.5262 41.5593 48.2063 41.6658 47.8438 41.6658C47.4813 41.6658 47.1508 41.5593 46.8523 41.3465C46.5538 41.1337 46.4045 40.7908 46.4045 40.3179V33.472H40.7431C40.3807 33.472 40.1035 33.3301 39.9115 33.0464C39.741 32.7626 39.6557 32.4197 39.6557 32.0177C39.6557 31.6157 39.741 31.2847 39.9115 31.0246C40.1035 30.7408 40.3807 30.5989 40.7431 30.5989H46.4045V24.2851C46.4045 23.8122 46.5538 23.4693 46.8523 23.2565C47.1508 23.0437 47.4813 22.9372 47.8438 22.9372Z" fill="white"/>
</g>
<defs>
<clipPath id="clip0_2855_11119">
<rect width="64" height="64" fill="white"/>
</clipPath>
</defs>
</svg>
