<svg width="64" height="64" viewBox="0 0 64 64" fill="none" xmlns="http://www.w3.org/2000/svg">
<g clip-path="url(#clip0_2998_11115)">
<circle cx="32" cy="32" r="30.5" stroke="white" stroke-width="3"/>
<path fill-rule="evenodd" clip-rule="evenodd" d="M16.7924 16.5137C18.2195 15.8115 19.8956 15.8301 21.3068 16.5639L26.5067 19.2679L23.2805 25.4722L22.8904 27.6566L22.208 27.5348L21.8932 28.1401L19.9558 27.1326L13.0461 25.8987L14.0779 20.121C14.3575 18.5553 15.3653 17.216 16.7924 16.5137ZM28.6068 20.3599L33.8068 23.0639C35.3486 23.8656 36.3635 25.4104 36.4873 27.1438L36.9046 32.9866L26.9301 33.6991L26.712 30.6458L23.9933 29.2321L28.6068 20.3599ZM22.4539 30.1013L21.4221 35.879C21.1494 37.4062 20.1832 38.7203 18.8068 39.4361L13.6068 42.1401L8.99326 33.2679L12.0104 31.699L12.6096 28.3434L22.4539 30.1013ZM44.4189 32.2566C45.6256 31.8543 46.9403 31.9271 48.0953 32.4602L53.4295 34.9222L49.2389 44.0018L45.7026 42.3696L42.0127 43.5996L38.8504 34.1127L44.4189 32.2566ZM11.5067 43.2321L6.30676 45.9361L1.69324 37.0639L6.89321 34.3599L11.5067 43.2321ZM39.6496 44.3873L34.0811 46.2434C32.6159 46.7318 31.0072 46.5157 29.7229 45.6578C28.4386 44.8 27.6227 43.3968 27.5127 41.8562L27.0954 36.0134L34.7993 35.4631L36.4873 34.9004L36.6312 35.3323L37.0699 35.3009L37.1924 37.016L39.6496 44.3873ZM55.7611 35.9982L61.0953 38.4602L56.9047 47.5398L51.5705 45.0778L55.7611 35.9982Z" fill="white"/>
</g>
<defs>
<clipPath id="clip0_2998_11115">
<rect width="64" height="64" fill="white"/>
</clipPath>
</defs>
</svg>
