<svg width="64" height="64" viewBox="0 0 64 64" fill="none" xmlns="http://www.w3.org/2000/svg">
<g clip-path="url(#clip0_2877_10905)">
<circle cx="32" cy="32" r="30.5" stroke="white" stroke-width="3"/>
<circle cx="39.9155" cy="15.5031" r="5.5" transform="rotate(45 39.9155 15.5031)" fill="white"/>
<path d="M20.2624 23.1495C23.4272 19.2786 27.6486 18.8549 31.5196 22.0197C36.366 25.5949 31.5196 22.0197 36.366 25.5949C40.3896 28.5632 44.4583 28.336 47.6231 24.4651" stroke="white" stroke-width="6" stroke-linecap="round"/>
<path d="M32.1495 25.6003L17.3003 40.4496" stroke="white" stroke-width="6" stroke-linecap="round"/>
<path d="M22.6374 35.225C25.6373 33.225 31.2774 32.621 33.1374 35.225C35.6373 38.725 33.3573 40.496 31.6373 41.725" stroke="white" stroke-width="6" stroke-linecap="round"/>
<mask id="mask0_2877_10905" style="mask-type:alpha" maskUnits="userSpaceOnUse" x="10" y="48" width="44" height="8">
<path d="M10 52H54" stroke="white" stroke-width="8" stroke-dasharray="12 2"/>
<path opacity="0.2" d="M10 52H54" stroke="white" stroke-width="8"/>
</mask>
<g mask="url(#mask0_2877_10905)">
<circle r="22" transform="matrix(-1 0 0 1 32 32)" fill="white" stroke="white" stroke-width="4"/>
</g>
</g>
<defs>
<clipPath id="clip0_2877_10905">
<rect width="64" height="64" fill="white"/>
</clipPath>
</defs>
</svg>
