<svg width="64" height="64" viewBox="0 0 64 64" fill="none" xmlns="http://www.w3.org/2000/svg">
<g clip-path="url(#clip0_2903_10947)">
<circle cx="32" cy="32" r="30.5" stroke="white" stroke-width="3"/>
<mask id="mask0_2903_10947" style="mask-type:alpha" maskUnits="userSpaceOnUse" x="0" y="0" width="64" height="64">
<circle cx="32" cy="32" r="32" fill="#D9D9D9"/>
</mask>
<g mask="url(#mask0_2903_10947)">
<path fill-rule="evenodd" clip-rule="evenodd" d="M14.8903 15.5404C16.5561 13.8023 19.224 13.4981 21.2383 14.8166L29.5866 20.2808L33.7701 23.0191L30.794 27.5659L31.2448 28.1948L30.1216 29.0001H19.5175L14.4366 21.9135C13.0338 19.957 13.2244 17.2785 14.8903 15.5404Z" fill="white"/>
<path fill-rule="evenodd" clip-rule="evenodd" d="M37.8319 25.5276L41.9566 28.3537L47.8262 32.3755C49.6341 33.6142 50.4246 35.886 49.7762 37.9795C49.1277 40.0729 47.1916 41.5002 45 41.5001L40 41.5001L35 41.5001L35 35.7094V29.6607L37.8319 25.5276ZM31.5 41.5001V31.5001L27 31.5001L22 31.5001H17H12V41.5001H17H22L27 41.5001L31.5 41.5001ZM-6 31.5001H-1H4H9V41.5001H4H-1H-6V31.5001Z" fill="white"/>
<path fill-rule="evenodd" clip-rule="evenodd" d="M29.0513 44.0001L29.5733 44.5352L33.9211 48.9917C34.8621 49.9562 36.1526 50.5001 37.5001 50.5001H42.5001H47.5001V44.0001C47.5 44.0001 47.5 44.0001 47.5 44.0001H29.0513ZM50.5001 42.8542V50.5001H55.5001H60.5001H65.5V40.5001H60.5001H55.5001H51.8875C51.6747 41.4352 51.1781 42.2479 50.5001 42.8542Z" fill="white"/>
</g>
</g>
<defs>
<clipPath id="clip0_2903_10947">
<rect width="64" height="64" fill="white"/>
</clipPath>
</defs>
</svg>
