<svg width="64" height="64" viewBox="0 0 64 64" fill="none" xmlns="http://www.w3.org/2000/svg">
<g clip-path="url(#clip0_2903_10930)">
<circle cx="32" cy="32" r="30.5" stroke="white" stroke-width="3"/>
<mask id="mask0_2903_10930" style="mask-type:alpha" maskUnits="userSpaceOnUse" x="0" y="0" width="64" height="64">
<circle cx="32" cy="32" r="32" fill="#D9D9D9"/>
</mask>
<g mask="url(#mask0_2903_10930)">
<path fill-rule="evenodd" clip-rule="evenodd" d="M24.6227 17C22.7068 17 20.9594 18.0947 20.1236 19.8186L17.9579 24.2854L15.7765 28.7845L24.7747 33.1472L26.956 28.6481L27.7551 27H29.7662H34.7662V17H29.7662H24.6227ZM43.1395 17H38.1395V27H40.0828L39.2473 28.6219L48.1371 33.2014L50.4269 28.7566L52.7279 24.2898C53.5264 22.7398 53.4598 20.8857 52.5521 19.397C51.6444 17.9083 50.0267 17 48.2831 17H43.1395ZM44.4441 40.3702L46.7339 35.9253L37.8441 31.3457L35.5544 35.7906L34.6495 37.5472H32.69H27.69V47.5472H32.69H37.6982C39.5703 47.5472 41.2857 46.5013 42.143 44.837L44.4441 40.3702ZM19.871 34L14.5084 31.4L13.2478 34H19.871Z" fill="white"/>
<path fill-rule="evenodd" clip-rule="evenodd" d="M38.4146 37.5472H37H27.8525H22.8525V47.5472H27.8525H29.6039V40.0377H37.1357L38.4146 37.5472ZM44.5135 47.5472C44.5563 47.4734 44.5974 47.3982 44.6367 47.3218L49.656 37.5472H50.8413V47.5472H45.8413H44.5135ZM6 37.5472H1V47.5472H6H15.1475H20.1475V37.5472H15.1475H6ZM58.1209 37.5472H53.1209V47.5472H58.1209H66.9623H71.9623V37.5472H66.9623H58.1209Z" fill="white"/>
</g>
</g>
<defs>
<clipPath id="clip0_2903_10930">
<rect width="64" height="64" fill="white"/>
</clipPath>
</defs>
</svg>
