<svg width="64" height="64" viewBox="0 0 64 64" fill="none" xmlns="http://www.w3.org/2000/svg">
<g clip-path="url(#clip0_2884_11143)">
<circle cx="32" cy="32" r="30.5" stroke="white" stroke-width="3"/>
<path d="M43.7682 18.7324C43.1761 20.6979 42.7024 25.4546 45.5445 28.7568" stroke="white" stroke-width="4" stroke-linecap="round"/>
<path d="M50.7362 17.553C49.9468 20.1083 48.8709 28.6389 49.8183 30.5258" stroke="white" stroke-width="4" stroke-linecap="round"/>
<path opacity="0.2" d="M46.8715 46.447H10.1151C6.56254 45.2676 11.3455 42.3193 13.7139 41.1399C16.0823 39.9606 13.1218 34.6535 13.1218 31.1155C13.1218 27.5775 16.6744 17.553 27.9243 18.1427C38.5963 18.702 38.5821 29.9362 39.7664 32.8845C40.1611 33.6707 41.069 34.7714 41.5427 32.8845C42.1348 30.5258 43.3189 28.1671 45.6873 26.9878C48.0557 25.8084 49.2399 25.2188 51.6083 29.3465C53.9767 33.4742 53.0141 41.1039 51.0163 44.0883C49.832 45.8573 48.6478 46.447 46.8715 46.447Z" fill="white"/>
<path fill-rule="evenodd" clip-rule="evenodd" d="M10.1152 46.447H46.8716C48.6479 46.447 49.8321 45.8573 51.0163 44.0883C53.0142 41.1039 53.9768 33.4742 51.6084 29.3465C49.24 25.2188 48.0558 25.8084 45.6874 26.9878C43.319 28.1671 42.1348 30.5258 41.5427 32.8845C41.4223 33.3642 41.2738 33.6508 41.1128 33.7986C38.7025 39.7614 31.3936 42.9044 25.3655 40.2882C23.1097 39.3093 21.0049 37.8516 19.6226 35.967C18.22 34.0547 17.57 31.704 18.2858 29.083C18.9561 26.6289 20.157 24.7745 21.8235 23.6301C23.496 22.4816 25.5247 22.1259 27.693 22.4615C31.2177 23.0072 33.7461 25.7447 33.4977 29.414C33.328 31.9211 31.7135 33.6719 29.8344 34.3605C27.9767 35.0413 25.7 34.7187 24.3633 32.8836C23.2864 31.4052 23.3624 29.7812 24.0211 28.6252C24.6158 27.5814 25.9598 26.6108 27.3664 27.2589C27.868 27.49 28.0872 28.084 27.8561 28.5856C27.625 29.0872 27.031 29.3065 26.5294 29.0754C26.4881 29.0563 26.1081 29.0022 25.7588 29.6153C25.4734 30.1162 25.3852 30.8896 25.9799 31.7061C26.6698 32.6532 27.9167 32.9332 29.1462 32.4826C30.3544 32.0399 31.3908 30.9254 31.5023 29.2789C31.6724 26.7661 30.0102 24.8441 27.387 24.438C25.6243 24.1651 24.1329 24.4705 22.9557 25.2788C21.7726 26.0913 20.7943 27.4896 20.2152 29.61C19.6816 31.5635 20.142 33.2936 21.2353 34.7842C22.3489 36.3025 24.1253 37.5698 26.1617 38.4536C31.4258 40.7381 37.9385 37.6731 39.5491 32.2159C39.4176 31.7359 39.2925 31.151 39.1522 30.4955C38.2163 26.1196 36.6075 18.5978 27.9244 18.1427C16.6744 17.553 13.1219 27.5775 13.1219 31.1155C13.1219 32.4252 13.5276 33.9774 13.9185 35.4729C14.5835 38.0171 15.2056 40.3972 13.714 41.1399C11.3456 42.3193 6.56256 45.2676 10.1152 46.447Z" fill="white"/>
</g>
<defs>
<clipPath id="clip0_2884_11143">
<rect width="64" height="64" fill="white"/>
</clipPath>
</defs>
</svg>
