<svg width="64" height="64" viewBox="0 0 64 64" fill="none" xmlns="http://www.w3.org/2000/svg">
<g clip-path="url(#clip0_2904_11073)">
<circle cx="32" cy="32" r="30.5" stroke="white" stroke-width="3"/>
<mask id="mask0_2904_11073" style="mask-type:alpha" maskUnits="userSpaceOnUse" x="0" y="0" width="64" height="64">
<circle cx="32" cy="32" r="32" fill="#D9D9D9"/>
</mask>
<g mask="url(#mask0_2904_11073)">
<path fill-rule="evenodd" clip-rule="evenodd" d="M36.8369 14.6603C35.847 13.0184 34.0736 12.0104 32.1563 12.0001C30.2391 11.9897 28.4549 12.9785 27.4474 14.6097L23.1406 21.5824L20.2503 26.2617L29.609 32.0423L32.0698 28.0582L34.4598 32.0226L43.8803 26.3432L41.0406 21.633L36.8369 14.6603ZM28.2526 34.2383L27.7821 35H14.853L16.0036 33.1371L18.8939 28.4577L28.2526 34.2383ZM30.0001 37.5H26.238H13.3088L11.6969 40.1097C10.6489 41.8064 10.6014 43.9373 11.5728 45.6789C12.5441 47.4206 14.382 48.5 16.3762 48.5H24.8866H30.3866V37.5H30.0001ZM48.0066 33.1877L45.1669 28.4774L35.7465 34.1568L37.762 37.5H33.4896V48.5H38.9896H47.5C49.4836 48.5 51.3135 47.4319 52.289 45.7048C53.2645 43.9777 53.2344 41.8591 52.2103 40.1603L48.0066 33.1877Z" fill="white"/>
<path fill-rule="evenodd" clip-rule="evenodd" d="M27.3458 37.5H25.0648H19.5001H13.9403H8.44035V48.5H13.9403H19.5001H25.0648H26.8506C25.8621 48.045 25.0303 47.2713 24.5085 46.2718C23.6465 44.6209 23.7736 42.6278 24.8381 41.0997L27.3458 37.5ZM52.0901 48.5H54.7618V45.483C54.6001 45.9879 54.3572 46.47 54.0363 46.9088C53.5266 47.6059 52.8535 48.1487 52.0901 48.5ZM54.7618 42.4326V37.5H53.1917L54.7618 42.4326ZM39.5331 37.5H42.6973L43.1613 38.9578H38.5176L39.5331 37.5ZM-28.3816 37.5H-33.8816V48.5H-28.3816H-22.9415H-17.4415V37.5H-22.9415H-28.3816ZM-10.1412 37.5H-15.6412V48.5H-10.1412H-4.7011H0.858631H6.35863V37.5H0.858631H-4.7011H-10.1412ZM62.2947 37.5H56.7947V48.5H62.2947H67.8337H73.8008H79.3008V37.5H73.8008H67.8337H62.2947ZM87.8411 37.5H82.3411V48.5H87.8411H93.8082H99.3082V37.5H93.8082H87.8411Z" fill="white"/>
</g>
</g>
<defs>
<clipPath id="clip0_2904_11073">
<rect width="64" height="64" fill="white"/>
</clipPath>
</defs>
</svg>
