<svg width="64" height="64" viewBox="0 0 64 64" fill="none" xmlns="http://www.w3.org/2000/svg">
<g clip-path="url(#clip0_2998_11161)">
<circle cx="32" cy="32" r="30.5" stroke="white" stroke-width="3"/>
<mask id="mask0_2998_11161" style="mask-type:alpha" maskUnits="userSpaceOnUse" x="0" y="0" width="64" height="64">
<circle cx="32" cy="32" r="32" fill="#D9D9D9"/>
</mask>
<g mask="url(#mask0_2998_11161)">
<path fill-rule="evenodd" clip-rule="evenodd" d="M0 13H13.314V23H0V13ZM15.686 13H32.314V23H15.686V13ZM34.686 13H43C45.7614 13 48 15.2386 48 18V26.3214H38V23H34.686V13ZM48 28.7214V37.0429C48 38.5662 47.3055 40.0064 46.1136 40.9551L39.581 46.1542L33.3537 38.3298L38 34.632V28.7214H48ZM37.6225 47.713L31.0898 52.9122C30.2049 53.6165 29.1072 54 27.9762 54H19.6622V44H26.2294L31.3952 39.8886L37.6225 47.713ZM3.97619 44H17.2901V54H3.97619V44Z" fill="white"/>
</g>
</g>
<defs>
<clipPath id="clip0_2998_11161">
<rect width="64" height="64" fill="white"/>
</clipPath>
</defs>
</svg>
