<svg width="64" height="64" viewBox="0 0 64 64" fill="none" xmlns="http://www.w3.org/2000/svg">
<g clip-path="url(#clip0_2886_10890)">
<circle cx="32" cy="32" r="30.5" stroke="white" stroke-width="3"/>
<path fill-rule="evenodd" clip-rule="evenodd" d="M40.6985 19.4142C39.9175 18.6332 38.6511 18.6332 37.8701 19.4142L34.3346 22.9497L39.2843 27.8995L42.8198 24.364C43.6009 23.5829 43.6009 22.3166 42.8198 21.5355L40.6985 19.4142ZM37.163 30.0208L32.2132 25.0711L12.4142 44.8701C11.6332 45.6511 11.6332 46.9174 12.4142 47.6985L14.5356 49.8198C15.3166 50.6009 16.5829 50.6009 17.364 49.8198L37.163 30.0208Z" fill="white"/>
<path d="M22.5112 12.2692C22.6246 11.7429 23.3754 11.7429 23.4888 12.2692L24.6372 17.6008C24.6743 17.7731 24.7994 17.9131 24.9665 17.9694L29.592 19.5261C30.046 19.6789 30.046 20.3211 29.592 20.4739L24.9665 22.0306C24.7994 22.0869 24.6743 22.2269 24.6372 22.3992L23.4888 27.7308C23.3754 28.2571 22.6246 28.2571 22.5112 27.7308L21.3628 22.3992C21.3257 22.2269 21.2006 22.0869 21.0335 22.0306L16.408 20.4739C15.954 20.3211 15.954 19.6789 16.408 19.5261L21.0335 17.9694C21.2006 17.9131 21.3257 17.7731 21.3628 17.6008L22.5112 12.2692Z" fill="white"/>
<path d="M47.0116 30.2328C47.1262 29.7086 47.8738 29.7086 47.9884 30.2328L48.818 34.0248C48.8557 34.1972 48.9816 34.337 49.1492 34.3925L52.5678 35.5254C53.0247 35.6768 53.0247 36.3232 52.5678 36.4746L49.1492 37.6075C48.9816 37.663 48.8557 37.8028 48.818 37.9752L47.9884 41.7672C47.8738 42.2914 47.1262 42.2914 47.0116 41.7672L46.182 37.9752C46.1443 37.8028 46.0184 37.663 45.8508 37.6075L42.4322 36.4746C41.9753 36.3232 41.9753 35.6768 42.4322 35.5254L45.8508 34.3925C46.0184 34.337 46.1443 34.1972 46.182 34.0248L47.0116 30.2328Z" fill="white"/>
<path d="M44.0117 10.2165C44.127 9.6933 44.873 9.6933 44.9883 10.2165L45.3933 12.055C45.4313 12.2275 45.5575 12.3671 45.7253 12.4224L47.5568 13.0251C48.015 13.1759 48.015 13.8241 47.5568 13.9749L45.7253 14.5776C45.5575 14.6329 45.4313 14.7725 45.3933 14.945L44.9883 16.7835C44.873 17.3067 44.127 17.3067 44.0117 16.7835L43.6067 14.945C43.5687 14.7725 43.4425 14.6329 43.2747 14.5776L41.4432 13.9749C40.985 13.8241 40.985 13.1759 41.4432 13.0251L43.2747 12.4224C43.4425 12.3671 43.5687 12.2275 43.6067 12.055L44.0117 10.2165Z" fill="white"/>
</g>
<defs>
<clipPath id="clip0_2886_10890">
<rect width="64" height="64" fill="white"/>
</clipPath>
</defs>
</svg>
