<svg width="64" height="64" viewBox="0 0 64 64" fill="none" xmlns="http://www.w3.org/2000/svg">
<g clip-path="url(#clip0_2908_11234)">
<circle cx="32" cy="32" r="30.5" stroke="white" stroke-width="3"/>
<path d="M15.8882 23.0501C17.7742 23.0501 19.1764 23.4172 20.0949 24.1516C21.0133 24.8693 21.4725 25.9875 21.4725 27.5063V27.8067C21.4725 28.2239 21.4233 28.6245 21.3249 29.0083C21.2265 29.3922 21.0625 29.751 20.8329 30.0848C20.6197 30.4019 20.3327 30.6857 19.9719 30.936C19.6274 31.1697 19.1928 31.3533 18.668 31.4868C19.2092 31.5702 19.7013 31.7121 20.1441 31.9124C20.5869 32.1127 20.9641 32.388 21.2757 32.7385C21.6037 33.0723 21.8497 33.4812 22.0137 33.9652C22.1941 34.4325 22.2843 34.9917 22.2843 35.6426V36.0431C22.2843 37.5619 21.8251 38.7469 20.9067 39.5981C19.9883 40.4325 18.5696 40.8498 16.6508 40.8498H11.091C10.3038 40.8498 9.75442 40.6996 9.44281 40.3992C9.1476 40.0987 9 39.5563 9 38.7719V25.128C9 24.3435 9.1476 23.8011 9.44281 23.5007C9.75442 23.2003 10.3038 23.0501 11.091 23.0501H15.8882ZM12.1243 38.1961H14.9779C15.6668 38.1961 16.2654 38.1711 16.7738 38.121C17.2986 38.0709 17.725 37.9624 18.053 37.7955C18.3974 37.612 18.6516 37.3533 18.8156 37.0195C18.9796 36.6857 19.0616 36.2434 19.0616 35.6926V35.3672C19.0616 34.9499 18.996 34.5828 18.8648 34.2656C18.7336 33.9485 18.504 33.6898 18.176 33.4896C17.848 33.2893 17.4052 33.1391 16.8476 33.0389C16.29 32.9388 15.593 32.8887 14.7565 32.8887H12.1243V38.1961ZM12.1243 30.2851H14.6827C15.4043 30.2851 15.9948 30.2517 16.454 30.185C16.9296 30.1015 17.2986 29.968 17.561 29.7844C17.8398 29.6008 18.0284 29.3588 18.1268 29.0584C18.2252 28.758 18.2744 28.3741 18.2744 27.9068V27.6815C18.2744 26.8804 17.9792 26.3547 17.3888 26.1043C16.8148 25.8373 15.8636 25.7038 14.5351 25.7038H12.1243V30.2851Z" fill="white"/>
<path d="M30.2336 23.0501C31.2996 23.0501 32.2098 23.1836 32.9642 23.4506C33.735 23.701 34.3665 24.0598 34.8585 24.5271C35.3505 24.9777 35.7113 25.5202 35.9409 26.1544C36.1869 26.7886 36.3099 27.4729 36.3099 28.2072V28.5577C36.3099 29.2921 36.1869 29.993 35.9409 30.6606C35.6949 31.3115 35.3177 31.8873 34.8093 32.388C34.3009 32.872 33.6694 33.2643 32.915 33.5647C32.1606 33.8484 31.2668 33.9903 30.2336 33.9903H26.6911V39.6231C26.6911 40.1071 26.5353 40.4576 26.2237 40.6745C25.9121 40.8915 25.5431 41 25.1166 41C24.6902 41 24.3212 40.8915 24.0096 40.6745C23.698 40.4576 23.5422 40.1071 23.5422 39.6231V25.128C23.5422 24.3435 23.6898 23.8011 23.985 23.5007C24.2966 23.2003 24.846 23.0501 25.6333 23.0501H30.2336ZM26.6911 31.2865H29.8154C30.8486 31.2865 31.6604 31.0862 32.2508 30.6857C32.8412 30.2851 33.1364 29.5591 33.1364 28.5076V28.2323C33.1364 27.7316 33.0626 27.3227 32.915 27.0056C32.7674 26.6885 32.5542 26.4381 32.2754 26.2545C32.013 26.0542 31.6932 25.9207 31.316 25.854C30.9388 25.7705 30.5288 25.7288 30.086 25.7288H26.6911V31.2865Z" fill="white"/>
<path d="M40.0675 23C40.4283 23 40.7399 23.0334 41.0023 23.1001C41.2647 23.1502 41.4943 23.267 41.6911 23.4506C41.9043 23.6175 42.1011 23.8679 42.2815 24.2017C42.4783 24.5355 42.6915 24.9861 42.9211 25.5535L46.2914 34.1154L49.5141 25.5786C49.7109 25.0278 49.8995 24.5855 50.0799 24.2517C50.2767 23.9179 50.4817 23.6592 50.6949 23.4757C50.9245 23.2921 51.1705 23.1669 51.4329 23.1001C51.7117 23.0334 52.0315 23 52.3923 23H52.909C53.6962 23 54.2374 23.1502 54.5326 23.4506C54.8442 23.751 55 24.2935 55 25.0779V39.6982C55 40.1488 54.8524 40.4826 54.5572 40.6996C54.262 40.8999 53.9094 41 53.4994 41C53.1222 41 52.7777 40.8999 52.4661 40.6996C52.1709 40.4826 52.0233 40.1488 52.0233 39.6982V25.8039C51.8757 26.4381 51.7363 26.9638 51.6051 27.3811C51.4739 27.7816 51.3427 28.1572 51.2115 28.5076L47.9642 36.644C47.751 37.178 47.5214 37.5369 47.2754 37.7204C47.0458 37.8873 46.7178 37.9708 46.2914 37.9708C45.783 37.9708 45.3976 37.879 45.1352 37.6954C44.8892 37.4951 44.6596 37.1196 44.4464 36.5688L41.2729 28.5076C41.1417 28.1739 41.0105 27.7983 40.8793 27.3811C40.7481 26.9638 40.5923 26.4381 40.4119 25.8039V39.6982C40.4119 40.1488 40.2561 40.4826 39.9444 40.6996C39.6492 40.8999 39.3048 41 38.9112 41C38.534 41 38.1978 40.8999 37.9026 40.6996C37.6074 40.4826 37.4598 40.1488 37.4598 39.6982V25.0779C37.4598 24.2935 37.6074 23.751 37.9026 23.4506C38.2142 23.1502 38.7636 23 39.5508 23H40.0675Z" fill="white"/>
<path d="M32 11L32 19" stroke="white" stroke-width="3" stroke-linecap="round"/>
<path d="M39.1421 17.071L32.7781 10.7071C32.3876 10.3166 31.7544 10.3166 31.3639 10.7071L25 17.071" stroke="white" stroke-width="3" stroke-linecap="round"/>
<path d="M32 45L32 53" stroke="white" stroke-width="3" stroke-linecap="round"/>
<path d="M25 47.071L31.364 53.435C31.7545 53.8255 32.3877 53.8255 32.7782 53.435L39.1421 47.071" stroke="white" stroke-width="3" stroke-linecap="round"/>
</g>
<defs>
<clipPath id="clip0_2908_11234">
<rect width="64" height="64" fill="white"/>
</clipPath>
</defs>
</svg>
