<svg width="64" height="64" viewBox="0 0 64 64" fill="none" xmlns="http://www.w3.org/2000/svg">
<g clip-path="url(#clip0_2883_11086)">
<circle cx="32" cy="32" r="30.5" stroke="white" stroke-width="3"/>
<rect x="52.6074" y="8.64752" width="3" height="62.1685" transform="rotate(45 52.6074 8.64752)" fill="white"/>
<path fill-rule="evenodd" clip-rule="evenodd" d="M37.814 20.6638C38.1892 20.2886 38.2047 19.6869 37.8637 19.2803C37.5823 18.9448 37.3133 18.6094 37.0576 18.277C35.2989 15.9915 34.3267 14.0663 34.1363 13.4282C33.8205 12.3697 32.7064 11.7677 31.648 12.0835C30.5895 12.3992 29.9874 13.5133 30.3032 14.5718C30.6989 15.8981 32.0124 18.2795 33.8875 20.7163C34.2214 21.1503 34.5782 21.5927 34.9572 22.0381C35.3276 22.4734 35.9889 22.4889 36.3931 22.0847L37.814 20.6638ZM32.9962 25.4816C33.5383 24.9395 33.2968 24.001 32.5818 23.7244C31.5371 23.3203 30.4775 22.8089 29.4374 22.2275C26.8818 20.799 24.6768 19.0799 23.4614 17.9657C22.6472 17.2193 21.3821 17.2743 20.6356 18.0885C19.8892 18.9027 19.9442 20.1678 20.7584 20.9142C22.1804 22.2178 24.6347 24.1254 27.4857 25.7191C28.4142 26.2381 29.411 26.7388 30.4494 27.1766C30.8154 27.3309 31.2365 27.2413 31.5174 26.9604L32.9962 25.4816ZM27.8306 30.6472C28.3643 30.1135 28.1358 29.2064 27.4041 29.0213C25.8023 28.6162 24.2796 28.3604 22.9036 28.2678C21.5115 28.1742 20.1727 28.2407 19.0198 28.5521C17.8929 28.8565 16.6983 29.4674 15.9987 30.652C15.99 30.6667 15.9818 30.6817 15.9742 30.697C15.9311 30.784 15.7784 31.1027 15.738 31.3352C15.7006 31.5504 15.7275 31.8763 15.7358 31.9641C15.7372 31.9793 15.7392 31.9941 15.7415 32.0091C15.8722 32.8461 16.0563 33.7385 16.3316 34.6289C16.458 35.0375 16.3342 35.4849 16.0164 35.7713C15.2393 36.4716 14.5495 37.2486 13.9562 38.0019C12.2039 40.2271 10.8658 42.7975 10.1531 44.5125C9.72929 45.5325 10.2126 46.703 11.2326 47.1268C11.2841 47.1482 11.343 47.1348 11.3824 47.0954L15.169 43.3088C15.2308 43.247 15.284 43.1774 15.3281 43.102C15.8416 42.2229 16.4392 41.3142 17.0988 40.4766C17.5259 39.9343 17.95 39.4586 18.3658 39.0516C18.5159 38.9046 18.7556 38.9145 18.9068 39.0603C19.053 39.2013 19.2844 39.1934 19.428 39.0498L27.8306 30.6472ZM28.1241 40.1505C27.5492 40.7254 27.8588 41.7437 28.6381 41.9757C28.8362 42.0347 29.0362 42.0969 29.2384 42.162C29.5987 42.2777 29.9837 42.409 30.3841 42.5456C31.4417 42.9064 32.6071 43.3039 33.7087 43.5489C35.3235 43.9081 37.1138 44.0313 39.0033 43.3817C39.2246 43.3057 39.444 43.2201 39.6618 43.1249C40.155 42.9092 40.7474 43.0553 41.0321 43.5122C42.3143 45.5695 43.6513 47.6377 44.6161 49.1009C45.2241 50.023 46.4645 50.2777 47.3867 49.6697C48.3089 49.0617 48.5635 47.8212 47.9555 46.899C46.8999 45.2979 45.3951 42.9664 44.0196 40.7405C43.7873 40.3645 43.8336 39.8823 44.1152 39.5417C44.1877 39.4541 44.26 39.3651 44.3322 39.2746C44.3875 39.2053 44.4425 39.1369 44.497 39.0692C44.8415 38.6419 45.5059 38.7055 45.7766 39.1829C47.3245 41.9136 49.1191 44.8839 50.3006 46.7879C50.8831 47.7264 52.116 48.0151 53.0546 47.4327C53.9931 46.8503 54.2818 45.6173 53.6994 44.6788C52.5366 42.805 50.7708 39.882 49.2564 37.2104C48.8507 36.4946 48.466 35.8022 48.1176 35.1567C48.0868 35.0996 48.0965 35.0293 48.1415 34.9826L48.1419 34.9822C48.5301 34.5795 48.8953 34.2008 49.194 33.8647C49.5295 33.4871 49.8974 33.0376 50.1552 32.5324C50.4399 31.9744 50.6248 31.2809 50.4795 30.4953C50.3458 29.7729 49.9731 29.2071 49.6335 28.7918C49.0765 28.1106 48.1611 27.3264 47.1019 26.419L47.0986 26.4162C46.9711 26.307 46.8416 26.196 46.7103 26.0832C45.9916 25.4655 45.2711 24.9796 44.5567 24.6127C44.1946 24.4268 43.7588 24.5158 43.471 24.8036L28.1241 40.1505Z" fill="white"/>
</g>
<defs>
<clipPath id="clip0_2883_11086">
<rect width="64" height="64" fill="white"/>
</clipPath>
</defs>
</svg>
