<svg width="64" height="64" viewBox="0 0 64 64" fill="none" xmlns="http://www.w3.org/2000/svg">
<g clip-path="url(#clip0_2908_11282)">
<circle cx="32" cy="32" r="30.5" stroke="white" stroke-width="3"/>
<path fill-rule="evenodd" clip-rule="evenodd" d="M24.4368 38.0757C24.2494 37.9727 24.0359 37.9263 23.8229 37.9443C23.3868 37.9812 22.9456 38 22.4999 38C22.3682 38 22.2368 37.9984 22.1058 37.9951C21.1546 37.9713 20.5725 39.0728 21.3351 39.6418C22.9028 40.8115 24.6523 41.5827 26.2707 42.0441C26.718 42.1717 27.0395 42.5722 27.0395 43.0373V53C27.0395 54.3821 28.161 55.5 29.5402 55.5H29.5554H29.5705H29.5856H29.6006H29.6157H29.6307H29.6457H29.6607H29.6757H29.6906H29.7055H29.7204H29.7353H29.7501H29.7649H29.7797H29.7945H29.8093H29.824H29.8388H29.8535H29.8681H29.8828H29.8974H29.9121H29.9267H29.9413H29.9558H29.9704H29.9849H29.9994H30.0139H30.0283H30.0428H30.0572H30.0716H30.086H30.1004H30.1147H30.129H30.1434H30.1577H30.1719H30.1862H30.2004H30.2147H30.2289H30.2431H30.2572H30.2714H30.2855H30.2997H30.3138H30.3279H30.3419H30.356H30.37H30.3841H30.3981H30.4121H30.426H30.44H30.454H30.4679H30.4818H30.4957H30.5096H30.5235H30.5373H30.5512H30.565H30.5788H30.5926H30.6064H30.6202H30.6339H30.6477H30.6614H30.6751H30.6888H30.7025H30.7162H30.7298H30.7435H30.7571H30.7708H30.7844H30.798H30.8116H30.8251H30.8387H30.8523H30.8658H30.8793H30.8929H30.9064H30.9199H30.9333H30.9468H30.9603H30.9737H30.9872H31.0006H31.014H31.0274H31.0408H31.0542H31.0676H31.081H31.0943H31.1077H31.121H31.1344H31.1477H31.161H31.1743H31.1876H31.2009H31.2142H31.2275H31.2407H31.254H31.2672H31.2805H31.2937H31.3069H31.3201H31.3334H31.3466H31.3597H31.3729H31.3861H31.3993H31.4125H31.4256H31.4388H31.4519H31.4651H31.4782H31.4913H31.5045H31.5176H31.5307H31.5438H31.5569H31.57H31.5831H31.5962H31.6093H31.6223H31.6354H31.6485H31.6616H31.6746H31.6877H31.7007H31.7138H31.7268H31.7399H31.7529H31.7659H31.779H31.792H31.805H31.818H31.8311H31.8441H31.8571H31.8701H31.8831H31.8961H31.9091H31.9221H31.9351H31.9482H31.9612H31.9742H31.9871H32.0001H32.0131H32.0261H32.0391H32.0521H32.0651H32.0781H32.0911H32.1041H32.1171H32.1301H32.1431H32.1561H32.1691H32.1821H32.1951H32.2081H32.2211H32.2341H32.2471H32.2601H32.2731H32.2861H32.2991H32.3121H32.3251H32.3381H32.3511H32.3641H32.3772H32.3902H32.4032H32.4162H32.4293H32.4423H32.4553H32.4684H32.4814H32.4945H32.5075H32.5206H32.5336H32.5467H32.5598H32.5728H32.5859H32.599H32.6121H32.6252H32.6383H32.6514H32.6645H32.6776H32.6907H32.7038H32.717H32.7301H32.7432H32.7564H32.7695H32.7827H32.7959H32.809H32.8222H32.8354H32.8486H32.8618H32.875H32.8882H32.9014H32.9147H32.9279H32.9412H32.9544H32.9677H32.9809H32.9942H33.0075H33.0208H33.0341H33.0474H33.0607H33.0741H33.0874H33.1008H33.1141H33.1275H33.1409H33.1542H33.1676H33.1811H33.1945H33.2079H33.2213H33.2348H33.2482H33.2617H33.2752H33.2887H33.3022H33.3157H33.3292H33.3428H33.3563H33.3699H33.3835H33.397H33.4106H33.4243H33.4379H33.4515H33.4652H33.4788H33.4925H33.5062H33.5199H33.5336H33.5473H33.5611H33.5748H33.5886H33.6024H33.6162H33.63H33.6438H33.6576H33.6715H33.6854H33.6992H33.7131H33.727H33.741H33.7549H33.7689H33.7829H33.7968H33.8108H33.8249H33.8389H33.853H33.867H33.8811H33.8952H33.9093H33.9235H33.9376H33.9518H33.966H33.9802H33.9944H34.0086H34.0229H34.0372H34.0515H34.0658H34.0801H34.0944H34.1088H34.1232H34.1376H34.152H34.1665H34.1809H34.1954H34.2099H34.2244H34.2389H34.2535H34.2681H34.2827H34.2973H34.3119H34.3266H34.3413H34.3559H34.3707H34.3854H34.4002H34.4149H34.4297H34.4446H34.4594H34.4743H34.4892H34.5041H34.519H34.5339H34.5489H34.5639H34.5789H34.594H34.609H34.6241H34.6392H34.6544H34.6695H34.6847H34.6999H34.7151H34.7304H34.7456H34.7609H34.7762H34.7916H34.807H34.8224H34.8378H34.8532H34.8687H34.8842H34.8997H34.9152H34.9308H34.9464H34.962H34.9776H34.9933H35.009H35.0247H35.0405H35.0562H35.072H35.0879H35.1037H35.1196H35.1355H35.1514H35.1674H35.1834H35.1994H35.2154H35.2315H35.2476H35.2637H35.2799H35.296H35.3122H35.3285H35.3447H35.361H35.3774H35.3937H35.4101H35.4265H35.4429H35.4594H35.4759H35.4924H35.509H35.5256H35.5422H35.5588H35.5755H35.5922H35.6089H35.6257H35.6425H35.6593H35.6762H35.6931H35.71H35.7269H35.7439H35.7609H35.778H35.7951H35.8122H35.8293H35.8465H35.8637H35.8809H35.8982H35.9155H35.9328H35.9502H35.9676H35.985H36.0025H36.02H36.0375H36.0551H36.0727H36.0904H36.108H36.1257H36.1435H36.1612H36.179H36.1969H36.2148H36.2327H36.2506H36.2686H36.2866H36.3047H36.3228H36.3409H36.359H36.3772H36.3955H36.4137H36.432H36.4504H36.4688H36.4872H36.5056H36.5241H36.5426H36.5612H36.5798H36.5984H36.6171H36.6358H36.6545H36.6733H36.6921H36.711H36.7299H36.7488H36.7678H36.7868H36.8059H36.825H36.8441H36.8633H36.8825H36.9017H36.921H36.9403H36.9597H36.9791H36.9986H37.018H37.0376C38.4195 55.5 39.4685 54.4094 39.5999 53.16C39.775 51.4957 40.267 48.6248 40.6585 47.0024C40.6589 47.001 40.6602 47 40.6616 47H40.6707H40.6798H40.6889H40.6981H40.7072H40.7164H40.7255H40.7347H40.7439H40.7532H40.7624H40.7717H40.7809H40.7902H40.7995H40.8089H40.8182H40.8276H40.8369H40.8463H40.8557H40.8651H40.8746H40.884H40.8935H40.903H40.9125H40.922H40.9315H40.9411H40.9506H40.9602H40.9698H40.9794H40.989H40.9986H41.0083H41.0179H41.0276H41.0373H41.047H41.0567H41.0665H41.0762H41.086H41.0958H41.1055H41.1154H41.1252H41.135H41.1449H41.1547H41.1646H41.1745H41.1844H41.1943H41.2042H41.2142H41.2241H41.2341H41.2441H41.2541H41.2641H41.2741H41.2841H41.2942H41.3042H41.3143H41.3244H41.3345H41.3446H41.3547H41.3649H41.375H41.3852H41.3953H41.4055H41.4157H41.4259H41.4361H41.4464H41.4566H41.4669H41.4771H41.4874H41.4977H41.508H41.5183H41.5286H41.539H41.5493H41.5597H41.57H41.5804H41.5908H41.6012H41.6116H41.622H41.6324H41.6429H41.6533H41.6638H41.6743H41.6848H41.6953H41.7058H41.7163H41.7268H41.7373H41.7479H41.7584H41.769H41.7796H41.7901H41.8007H41.8113H41.8219H41.8326H41.8432H41.8538H41.8645H41.8751H41.8858H41.8965H41.9072H41.9178H41.9285H41.9393H41.95H41.9607H41.9714H41.9822H41.9929H42.0037H42.0145H42.0252H42.036H42.0468H42.0576H42.0684H42.0792H42.0901H42.1009H42.1117H42.1226H42.1334H42.1443H42.1552H42.166H42.1769H42.1878H42.1987H42.2096H42.2205H42.2314H42.2423H42.2533H42.2642H42.2752H42.2861H42.2971H42.308H42.319H42.33H42.341H42.3519H42.3629H42.3739H42.3849H42.396H42.407H42.418H42.429H42.4401H42.4511H42.4621H42.4732H42.4842H42.4953H42.5064H42.5174H42.5285H42.5396H42.5507H42.5618H42.5729H42.584H42.5951H42.6062H42.6173H42.6284H42.6395H42.6507H42.6618H42.6729H42.6841H42.6952H42.7064H42.7175H42.7287H42.7398H42.751H42.7622H42.7733H42.7845H42.7957H42.8069H42.818H42.8292H42.8404H42.8516H42.8628H42.874H42.8852H42.8964H42.9076H42.9188H42.93H42.9412H42.9525H42.9637H42.9749H42.9861H42.9974H43.0086H43.0198H43.031H43.0423H43.0535H43.0648H43.076H43.0872H43.0985H43.1097H43.121H43.1322H43.1435H43.1547H43.166H43.1772H43.1885H43.1997H43.211H43.2222H43.2335H43.2448H43.256H43.2673H43.2785H43.2898H43.3011H43.3123H43.3236H43.3348H43.3461H43.3574H43.3686H43.3799H43.3911H43.4024H43.4137H43.4249H43.4362H43.4474H43.4587H43.47H43.4812H43.4925H43.5037H43.515H43.5262H43.5375H43.5487H43.56H43.5712H43.5825H43.5937H43.605H43.6162H43.6275H43.6387H43.6499H43.6612H43.6724H43.6836H43.6949H43.7061H43.7173H43.7286H43.7398H43.751H43.7622H43.7734H43.7846H43.7959H43.8071H43.8183H43.8295H43.8407H43.8519H43.8631H43.8743H43.8854H43.8966H43.9078H43.919H43.9302H43.9413H43.9525H43.9637H43.9748H43.986H43.9971H44.0083H44.0194H44.0306H44.0417H44.0528H44.064H44.0751H44.0862H44.0973H44.1084H44.1195H44.1306H44.1417H44.1528H44.1639H44.175H44.1861H44.1972H44.2082H44.2193H44.2303H44.2414H44.2524H44.2635H44.2745H44.2856H44.2966H44.3076H44.3186H44.3296H44.3406H44.3516H44.3626H44.3736H44.3846H44.3955H44.4065H44.4175H44.4284H44.4394H44.4503H44.4613H44.4722H44.4831H44.494H44.5049H44.5158H44.5267H44.5376H44.5485H44.5593H44.5702H44.5811H44.5919H44.6028H44.6136H44.6244H44.6352H44.646H44.6568H44.6676H44.6784H44.6892H44.7H44.7107H44.7215H44.7322H44.743H44.7537H44.7644H44.7752H44.7859H44.7966H44.8072H44.8179H44.8286H44.8392H44.8499H44.8605H44.8712H44.8818H44.8924H44.903H44.9136H44.9242H44.9348H44.9453H44.9559H44.9664H44.977H44.9875H44.998H45.0085H45.019H45.0295H45.04H45.0505H45.0609H45.0714H45.0818H45.0922H45.1027H45.1131H45.1234H45.1338H45.1442H45.1546H45.1649H45.1753H45.1856H45.1959H45.2062H45.2165H45.2268H45.237H45.2473H45.2576H45.2678H45.278H45.2882H45.2984H45.3086H45.3188H45.329H45.3391H45.3492H45.3594H45.3695H45.3796H45.3897H45.3998H45.4098H45.4199H45.4299H45.4399H45.45H45.46H45.4699H45.4799H45.4899H45.4998H45.5098H45.5197H45.5296H45.5395C46.7578 47 47.5501 46.198 47.9962 45.4996C48.4477 44.7929 48.7436 43.9087 48.9488 43.0609C49.3187 41.533 49.4782 39.7552 49.5244 38.3719C49.5317 38.1522 49.608 37.9405 49.7453 37.7689L52.711 34.0617C53.4378 33.1533 53.4534 31.8373 52.6775 30.9169C52.5333 30.7457 52.3858 30.5724 52.237 30.3975L52.2367 30.3971L52.2366 30.397C51.6287 29.6825 50.9986 28.9418 50.4724 28.2167C50.1486 27.7706 49.8977 27.3747 49.7326 27.0402C49.6512 26.8752 49.5998 26.7433 49.57 26.6429C49.5419 26.5482 49.5397 26.5036 49.5395 26.5001C49.5395 26.4998 49.5395 26.4998 49.5395 26.5C49.5395 25.31 49.1277 21.6777 47.2968 18.2873C45.4213 14.8141 41.9804 11.5 36.0395 11.5C35.9015 11.5 35.7644 11.5011 35.6281 11.5033C34.7882 11.5167 34.4009 12.5335 34.9051 13.2054C35.1657 13.5526 35.412 13.9111 35.6432 14.28C35.7288 14.4165 35.8784 14.5 36.0395 14.5C40.5985 14.5 43.1577 16.9359 44.6571 19.7127C46.2013 22.5723 46.5395 25.69 46.5395 26.5C46.5395 27.1899 46.7833 27.8429 47.0423 28.3678C47.3124 28.9151 47.6709 29.4642 48.0444 29.9788C48.6462 30.808 49.374 31.6629 49.9857 32.3814C50.0538 32.4615 50.0556 32.5787 49.9899 32.6608L47.0873 36.289C46.7318 36.7334 46.5453 37.276 46.5369 37.8264C46.5169 39.1481 46.3761 40.9379 46.033 42.3551C45.8587 43.0755 45.6579 43.5873 45.468 43.8846C45.4375 43.9324 45.4119 43.9681 45.3914 43.9943C45.3885 43.9979 45.3842 44 45.3796 44H45.3695H45.3594H45.3492H45.3391H45.329H45.3188H45.3086H45.2984H45.2882H45.278H45.2678H45.2576H45.2473H45.237H45.2268H45.2165H45.2062H45.1959H45.1856H45.1753H45.1649H45.1546H45.1442H45.1338H45.1234H45.1131H45.1027H45.0922H45.0818H45.0714H45.0609H45.0505H45.04H45.0295H45.019H45.0085H44.998H44.9875H44.977H44.9664H44.9559H44.9453H44.9348H44.9242H44.9136H44.903H44.8924H44.8818H44.8712H44.8605H44.8499H44.8392H44.8286H44.8179H44.8072H44.7966H44.7859H44.7752H44.7644H44.7537H44.743H44.7322H44.7215H44.7107H44.7H44.6892H44.6784H44.6676H44.6568H44.646H44.6352H44.6244H44.6136H44.6028H44.5919H44.5811H44.5702H44.5593H44.5485H44.5376H44.5267H44.5158H44.5049H44.494H44.4831H44.4722H44.4613H44.4503H44.4394H44.4284H44.4175H44.4065H44.3955H44.3846H44.3736H44.3626H44.3516H44.3406H44.3296H44.3186H44.3076H44.2966H44.2856H44.2745H44.2635H44.2524H44.2414H44.2303H44.2193H44.2082H44.1972H44.1861H44.175H44.1639H44.1528H44.1417H44.1306H44.1195H44.1084H44.0973H44.0862H44.0751H44.064H44.0528H44.0417H44.0306H44.0194H44.0083H43.9971H43.986H43.9748H43.9637H43.9525H43.9413H43.9302H43.919H43.9078H43.8966H43.8854H43.8743H43.8631H43.8519H43.8407H43.8295H43.8183H43.8071H43.7959H43.7846H43.7734H43.7622H43.751H43.7398H43.7286H43.7173H43.7061H43.6949H43.6836H43.6724H43.6612H43.6499H43.6387H43.6275H43.6162H43.605H43.5937H43.5825H43.5712H43.56H43.5487H43.5375H43.5262H43.515H43.5037H43.4925H43.4812H43.47H43.4587H43.4474H43.4362H43.4249H43.4137H43.4024H43.3911H43.3799H43.3686H43.3574H43.3461H43.3348H43.3236H43.3123H43.3011H43.2898H43.2785H43.2673H43.256H43.2448H43.2335H43.2222H43.211H43.1997H43.1885H43.1772H43.166H43.1547H43.1435H43.1322H43.121H43.1097H43.0985H43.0872H43.076H43.0648H43.0535H43.0423H43.031H43.0198H43.0086H42.9974H42.9861H42.9749H42.9637H42.9525H42.9412H42.93H42.9188H42.9076H42.8964H42.8852H42.874H42.8628H42.8516H42.8404H42.8292H42.818H42.8069H42.7957H42.7845H42.7733H42.7622H42.751H42.7398H42.7287H42.7175H42.7064H42.6952H42.6841H42.6729H42.6618H42.6507H42.6395H42.6284H42.6173H42.6062H42.5951H42.584H42.5729H42.5618H42.5507H42.5396H42.5285H42.5174H42.5064H42.4953H42.4842H42.4732H42.4621H42.4511H42.4401H42.429H42.418H42.407H42.396H42.3849H42.3739H42.3629H42.3519H42.341H42.33H42.319H42.308H42.2971H42.2861H42.2752H42.2642H42.2533H42.2423H42.2314H42.2205H42.2096H42.1987H42.1878H42.1769H42.166H42.1552H42.1443H42.1334H42.1226H42.1117H42.1009H42.0901H42.0792H42.0684H42.0576H42.0468H42.036H42.0252H42.0145H42.0037H41.9929H41.9822H41.9714H41.9607H41.95H41.9393H41.9285H41.9178H41.9072H41.8965H41.8858H41.8751H41.8645H41.8538H41.8432H41.8326H41.8219H41.8113H41.8007H41.7901H41.7796H41.769H41.7584H41.7479H41.7373H41.7268H41.7163H41.7058H41.6953H41.6848H41.6743H41.6638H41.6533H41.6429H41.6324H41.622H41.6116H41.6012H41.5908H41.5804H41.57H41.5597H41.5493H41.539H41.5286H41.5183H41.508H41.4977H41.4874H41.4771H41.4669H41.4566H41.4464H41.4361H41.4259H41.4157H41.4055H41.3953H41.3852H41.375H41.3649H41.3547H41.3446H41.3345H41.3244H41.3143H41.3042H41.2942H41.2841H41.2741H41.2641H41.2541H41.2441H41.2341H41.2241H41.2142H41.2042H41.1943H41.1844H41.1745H41.1646H41.1547H41.1449H41.135H41.1252H41.1154H41.1055H41.0958H41.086H41.0762H41.0665H41.0567H41.047H41.0373H41.0276H41.0179H41.0083H40.9986H40.989H40.9794H40.9698H40.9602H40.9506H40.9411H40.9315H40.922H40.9125H40.903H40.8935H40.884H40.8746H40.8651H40.8557H40.8463H40.8369H40.8276H40.8182H40.8089H40.7995H40.7902H40.7809H40.7717H40.7624H40.7532H40.7439H40.7347H40.7255H40.7164H40.7072H40.6981H40.6889H40.6798H40.6707H40.6616H40.6526H40.6436H40.6345H40.6255H40.6165H40.6076H40.5986H40.5897H40.5808H40.5719H40.563H40.5541H40.5453H40.5364H40.5276H40.5188H40.5101H40.5013H40.4926H40.4839H40.4752H40.4665H40.4578H40.4492H40.4405H40.4319H40.4233H40.4148H40.4062H40.3977H40.3892H40.3807H40.3722H40.3638H40.3553H40.3469H40.3385H40.3302H40.3218H40.3135H40.3051H40.2969H40.2886H40.2803H40.2721H40.2639H40.2557H40.2475H40.2393H40.2312H40.2231H40.215H40.2069H40.1989C39.2119 44 38.1968 44.6099 37.8889 45.7274C37.4555 47.3002 36.8906 50.4986 36.6551 52.4995C36.6551 52.4998 36.6548 52.5 36.6545 52.5H36.6358H36.6171H36.5984H36.5798H36.5612H36.5426H36.5241H36.5056H36.4872H36.4688H36.4504H36.432H36.4137H36.3955H36.3772H36.359H36.3409H36.3228H36.3047H36.2866H36.2686H36.2506H36.2327H36.2148H36.1969H36.179H36.1612H36.1435H36.1257H36.108H36.0904H36.0727H36.0551H36.0375H36.02H36.0025H35.985H35.9676H35.9502H35.9328H35.9155H35.8982H35.8809H35.8637H35.8465H35.8293H35.8122H35.7951H35.778H35.7609H35.7439H35.7269H35.71H35.6931H35.6762H35.6593H35.6425H35.6257H35.6089H35.5922H35.5755H35.5588H35.5422H35.5256H35.509H35.4924H35.4759H35.4594H35.4429H35.4265H35.4101H35.3937H35.3774H35.361H35.3447H35.3285H35.3122H35.296H35.2799H35.2637H35.2476H35.2315H35.2154H35.1994H35.1834H35.1674H35.1514H35.1355H35.1196H35.1037H35.0879H35.072H35.0562H35.0405H35.0247H35.009H34.9933H34.9776H34.962H34.9464H34.9308H34.9152H34.8997H34.8842H34.8687H34.8532H34.8378H34.8224H34.807H34.7916H34.7762H34.7609H34.7456H34.7304H34.7151H34.6999H34.6847H34.6695H34.6544H34.6392H34.6241H34.609H34.594H34.5789H34.5639H34.5489H34.5339H34.519H34.5041H34.4892H34.4743H34.4594H34.4446H34.4297H34.4149H34.4002H34.3854H34.3707H34.3559H34.3413H34.3266H34.3119H34.2973H34.2827H34.2681H34.2535H34.2389H34.2244H34.2099H34.1954H34.1809H34.1665H34.152H34.1376H34.1232H34.1088H34.0944H34.0801H34.0658H34.0515H34.0372H34.0229H34.0086H33.9944H33.9802H33.966H33.9518H33.9376H33.9235H33.9093H33.8952H33.8811H33.867H33.853H33.8389H33.8249H33.8108H33.7968H33.7829H33.7689H33.7549H33.741H33.727H33.7131H33.6992H33.6854H33.6715H33.6576H33.6438H33.63H33.6162H33.6024H33.5886H33.5748H33.5611H33.5473H33.5336H33.5199H33.5062H33.4925H33.4788H33.4652H33.4515H33.4379H33.4243H33.4106H33.397H33.3835H33.3699H33.3563H33.3428H33.3292H33.3157H33.3022H33.2887H33.2752H33.2617H33.2482H33.2348H33.2213H33.2079H33.1945H33.1811H33.1676H33.1542H33.1409H33.1275H33.1141H33.1008H33.0874H33.0741H33.0607H33.0474H33.0341H33.0208H33.0075H32.9942H32.9809H32.9677H32.9544H32.9412H32.9279H32.9147H32.9014H32.8882H32.875H32.8618H32.8486H32.8354H32.8222H32.809H32.7959H32.7827H32.7695H32.7564H32.7432H32.7301H32.717H32.7038H32.6907H32.6776H32.6645H32.6514H32.6383H32.6252H32.6121H32.599H32.5859H32.5728H32.5598H32.5467H32.5336H32.5206H32.5075H32.4945H32.4814H32.4684H32.4553H32.4423H32.4293H32.4162H32.4032H32.3902H32.3772H32.3641H32.3511H32.3381H32.3251H32.3121H32.2991H32.2861H32.2731H32.2601H32.2471H32.2341H32.2211H32.2081H32.1951H32.1821H32.1691H32.1561H32.1431H32.1301H32.1171H32.1041H32.0911H32.0781H32.0651H32.0521H32.0391H32.0261H32.0131H32.0001H31.9871H31.9742H31.9612H31.9482H31.9351H31.9221H31.9091H31.8961H31.8831H31.8701H31.8571H31.8441H31.8311H31.818H31.805H31.792H31.779H31.7659H31.7529H31.7399H31.7268H31.7138H31.7007H31.6877H31.6746H31.6616H31.6485H31.6354H31.6223H31.6093H31.5962H31.5831H31.57H31.5569H31.5438H31.5307H31.5176H31.5045H31.4913H31.4782H31.4651H31.4519H31.4388H31.4256H31.4125H31.3993H31.3861H31.3729H31.3597H31.3466H31.3334H31.3201H31.3069H31.2937H31.2805H31.2672H31.254H31.2407H31.2275H31.2142H31.2009H31.1876H31.1743H31.161H31.1477H31.1344H31.121H31.1077H31.0943H31.081H31.0676H31.0542H31.0408H31.0274H31.014H31.0006H30.9872H30.9737H30.9603H30.9468H30.9333H30.9199H30.9064H30.8929H30.8793H30.8658H30.8523H30.8387H30.8251H30.8116H30.798H30.7844H30.7708H30.7571H30.7435H30.7298H30.7162H30.7025H30.6888H30.6751H30.6614H30.6477H30.6339H30.6202H30.6064H30.5926H30.5788H30.565H30.5512H30.5373H30.5235H30.5096H30.4957H30.4818H30.4679H30.454H30.44H30.426H30.4121H30.3981H30.3841H30.37H30.356H30.3419H30.3279H30.3138H30.2997H30.2855H30.2714H30.2572H30.2431H30.2289H30.2147H30.2004H30.1862H30.1719H30.1577H30.1434H30.129H30.1147H30.1004H30.086H30.0716H30.0572H30.0428C30.041 52.5 30.0395 52.4985 30.0395 52.4967V41.8673C30.0395 40.6078 29.1254 39.6177 27.9946 39.3817C26.8339 39.1395 25.5965 38.7129 24.4368 38.0757ZM45.336 44.0555C45.3369 44.0549 45.3362 44.0541 45.3354 44.0548C45.3329 44.0568 45.3317 44.0581 45.3317 44.0584C45.3317 44.0587 45.3332 44.0579 45.336 44.0555Z" fill="white"/>
<path fill-rule="evenodd" clip-rule="evenodd" d="M22.5 35C29.4036 35 35 29.4036 35 22.5C35 15.5964 29.4036 10 22.5 10C15.5964 10 10 15.5964 10 22.5C10 29.4036 15.5964 35 22.5 35ZM24 15.9783C24 15.1498 23.3284 14.4783 22.5 14.4783C21.6716 14.4783 21 15.1498 21 15.9783V22.587C21 23.9677 22.1193 25.087 23.5 25.087H26.3043C27.1328 25.087 27.8043 24.4154 27.8043 23.587C27.8043 22.7585 27.1328 22.087 26.3043 22.087H24V15.9783Z" fill="white"/>
</g>
<defs>
<clipPath id="clip0_2908_11282">
<rect width="64" height="64" fill="white"/>
</clipPath>
</defs>
</svg>
