<svg width="64" height="64" viewBox="0 0 64 64" fill="none" xmlns="http://www.w3.org/2000/svg">
<g clip-path="url(#clip0_2877_11023)">
<circle cx="32" cy="32" r="30.5" stroke="white" stroke-width="3"/>
<path fill-rule="evenodd" clip-rule="evenodd" d="M42.4323 16.0454C42.8629 15.6148 42.8127 14.9011 42.3072 14.5616C38.431 11.9582 33.7505 10.5665 29.0616 11.12C18.9263 12.3166 10.3063 21.3618 12.2789 31.837C12.9191 35.2363 14.3305 38.2677 16.4108 40.6481C16.7753 41.0651 17.4132 41.0645 17.8049 40.6729L19.218 39.2597C19.6077 38.87 19.6052 38.2409 19.2506 37.8189C17.7484 36.031 16.7085 33.7448 16.2098 31.0967C14.7644 23.4212 21.1324 16.0839 29.5306 15.0925C32.9905 14.684 36.5813 15.6516 39.6865 17.626C40.0964 17.8866 40.6355 17.8423 40.9789 17.4988L42.4323 16.0454ZM37.2588 21.219C37.7074 20.7704 37.6306 20.021 37.0742 19.7164C34.5543 18.337 31.6584 17.6732 28.8938 18.241C22.8605 19.4801 17.6971 25.6381 19.8748 32.1051C20.2563 33.238 20.8069 34.3868 21.5241 35.4265C21.8569 35.9091 22.5405 35.9373 22.955 35.5227L24.3962 34.0816C24.7513 33.7265 24.7826 33.1656 24.5258 32.7341C24.1952 32.1785 23.9057 31.5414 23.6657 30.8286C22.4737 27.2888 25.2916 23.0643 29.6985 22.1592C31.1631 21.8584 32.8764 22.1308 34.547 22.9147C34.9514 23.1045 35.4366 23.0411 35.7525 22.7252L37.2588 21.219ZM40.3104 28.9073C40.1506 28.511 40.2225 28.0521 40.5246 27.75L42.0643 26.2103C42.5218 25.7528 43.2885 25.8436 43.5767 26.4229C44.3271 27.9317 44.8149 29.5868 44.9322 31.3327C45.2465 36.0097 42.8815 39.8987 39.4987 42.4531C36.136 44.9923 31.6395 46.3331 27.2537 45.979C26.3623 45.907 25.504 45.7734 24.6803 45.5824C23.9579 45.4149 23.7461 44.5285 24.2705 44.0041L26.0603 42.2143C26.2884 41.9862 26.6123 41.8845 26.9323 41.9252C27.1442 41.9521 27.3587 41.9744 27.5756 41.9919C30.9851 42.2673 34.509 41.2085 37.0882 39.2609C39.6473 37.3286 41.1457 34.6435 40.9412 31.601C40.8794 30.6815 40.6602 29.7752 40.3104 28.9073ZM31.513 26.9648C32.0264 26.4514 31.83 25.5897 31.112 25.4823C30.842 25.4419 30.5662 25.4155 30.2853 25.4039C29.1817 25.3581 28.2499 26.2156 28.2041 27.3193C28.1815 27.865 28.3797 28.3688 28.7194 28.7441C29.0104 29.0656 29.5012 28.9766 29.8078 28.67L31.513 26.9648ZM35.5436 32.731C36.1239 32.1507 37.0655 32.4957 36.9137 33.3023C36.6475 34.7168 35.8723 35.9246 34.8859 36.8452C33.4538 38.1817 31.4993 39.0159 29.5774 39.289C29.3489 39.3214 29.2235 39.0511 29.3867 38.8879L35.5436 32.731ZM45.6572 23.7438C45.4133 23.3358 45.4636 22.811 45.7998 22.4748L47.2635 21.0111C47.7001 20.5745 48.4256 20.6333 48.7578 21.1539C50.676 24.1598 51.8791 27.6634 51.9913 31.4069C52.3676 43.9545 40.5428 54.4724 28.0271 52.8305C26.9319 52.6868 26.1606 51.6825 26.3042 50.5873C26.4479 49.4921 27.4522 48.7208 28.5474 48.8645C38.6713 50.1926 48.294 41.5599 47.9931 31.5268C47.9098 28.7484 47.0595 26.0899 45.6572 23.7438Z" fill="white"/>
<rect x="52.3926" y="8.86224" width="3" height="61.5612" transform="rotate(45 52.3926 8.86224)" fill="white"/>
</g>
<defs>
<clipPath id="clip0_2877_11023">
<rect width="64" height="64" fill="white"/>
</clipPath>
</defs>
</svg>
