<svg width="64" height="64" viewBox="0 0 64 64" fill="none" xmlns="http://www.w3.org/2000/svg">
<g clip-path="url(#clip0_2904_11007)">
<circle cx="32" cy="32" r="30.5" stroke="white" stroke-width="3"/>
<mask id="mask0_2904_11007" style="mask-type:alpha" maskUnits="userSpaceOnUse" x="0" y="0" width="64" height="64">
<circle cx="32" cy="32" r="32" fill="#D9D9D9"/>
</mask>
<g mask="url(#mask0_2904_11007)">
<path fill-rule="evenodd" clip-rule="evenodd" d="M33.1197 50.7231V51.9292H34.2447C33.8208 51.5767 33.4424 51.1713 33.1197 50.7231ZM44.293 51.9292H46.0858V49.9471L45.133 51.0904C44.8771 51.3975 44.5956 51.6778 44.293 51.9292ZM47.7368 47.9659V51.9292H52.7368H54.149H55.6704H60.6704V41.9292H55.6704H54.149H52.7674L47.7368 47.9659ZM-5 41.9292H-10V51.9292H-5H-3.61297H1.38703V41.9292H-3.61297H-5ZM7.83005 41.9292H2.83005V51.9292H7.83005H9.21708H10.6346H15.6346V41.9292H10.6346H9.21708H7.83005ZM22.3292 41.9292H17.3292V51.9292H22.3292H23.7468H25.3006H30.3006V41.9292H25.3006H23.7468H22.3292ZM68.222 41.9292H63.222V51.9292H68.222H69.7434H74.7434V41.9292H69.7434H68.222Z" fill="white"/>
<path fill-rule="evenodd" clip-rule="evenodd" d="M33.8378 10.5279C32.4122 9.8151 30.7323 9.82464 29.3149 10.5536L28.6346 10.9034L24.1882 13.1902L28.7617 22.0831L31.6335 20.6061L34.5375 22.0581L39.0096 13.1138L34.5375 10.8777L33.8378 10.5279ZM26.3161 23.3408L23.3328 24.8751L22.6694 28.192L12.8636 26.2308L13.8442 21.3279L13.9997 20.5504C14.2984 19.057 15.2614 17.7811 16.6158 17.0845L17.2961 16.7347L21.7426 14.4479L26.3161 23.3408ZM46.2 16.709L41.7278 14.4729L37.2557 23.4172L40.3062 24.9424L41.0581 28.2841L50.8142 26.089L49.7166 21.2109L49.5417 20.4334C49.2122 18.969 48.2422 17.7301 46.8997 17.0588L46.2 16.709ZM52.6322 34.1692L51.5347 29.2911L41.7786 31.4863L42.51 34.737L40.4012 37.2676L48.0834 43.6694L51.2843 39.8283L51.7702 39.2452C52.7651 38.0513 53.1483 36.4628 52.8072 34.9467L52.6322 34.1692ZM22.0389 31.3444L21.3475 34.8015L23.4572 37.5532L21.5701 39H21.5H12V39.0444C11.1469 37.907 10.8179 36.4594 11.097 35.0637L11.2525 34.2862L12.2331 29.3833L22.0389 31.3444ZM43.1854 49.547L46.3863 45.7059L38.7041 39.3041L36.5164 41.9292H33.0808V51.9292H38.0808H38.8583C40.3422 51.9292 41.7495 51.2701 42.6994 50.1301L43.1854 49.547Z" fill="white"/>
</g>
</g>
<defs>
<clipPath id="clip0_2904_11007">
<rect width="64" height="64" fill="white"/>
</clipPath>
</defs>
</svg>
