<svg width="64" height="64" viewBox="0 0 64 64" fill="none" xmlns="http://www.w3.org/2000/svg">
<g clip-path="url(#clip0_2877_10873)">
<circle r="30.5" transform="matrix(-1 0 0 1 32 32)" stroke="white" stroke-width="3"/>
<path fill-rule="evenodd" clip-rule="evenodd" d="M28.7042 53.7523C28.8695 52.661 29.8882 51.9202 30.9906 51.975C31.325 51.9916 31.6615 52 32 52C43.0457 52 52 43.0457 52 32C52 20.9543 43.0457 12 32 12C31.6192 12 31.3001 11.7033 31.287 11.3227L31.2014 8.84076C31.1857 8.38423 31.5432 8 32 8C45.2548 8 56 18.7452 56 32C56 45.2548 45.2548 56 32 56C31.4606 56 30.9253 55.9822 30.3948 55.9472C29.2915 55.8743 28.5386 54.8455 28.7042 53.7523Z" fill="white"/>
<rect width="15.625" height="4" rx="2" transform="matrix(4.37114e-08 1 1 -4.37114e-08 30.0001 31.375)" fill="white"/>
<rect width="4" height="8" rx="2" transform="matrix(-1 0 0 1 34 8)" fill="white"/>
<path opacity="0.4" fill-rule="evenodd" clip-rule="evenodd" d="M18.4695 14.6533C19.1486 15.5238 18.9857 16.7732 18.1873 17.5359C14.3749 21.1776 12 26.3115 12 32C12 43.0457 20.9543 52 32 52C43.0457 52 52 43.0457 52 32C52 20.9543 43.0457 12 32 12C31.6192 12 31.3001 11.7033 31.287 11.3227L31.2014 8.84076C31.1857 8.38423 31.5432 8 32 8C45.2548 8 56 18.7452 56 32C56 45.2548 45.2548 56 32 56C18.7452 56 8 45.2548 8 32C8 25.031 10.9704 18.7557 15.7141 14.3712C16.5257 13.6211 17.7898 13.7818 18.4695 14.6533Z" fill="white"/>
</g>
<defs>
<clipPath id="clip0_2877_10873">
<rect width="64" height="64" fill="white"/>
</clipPath>
</defs>
</svg>
