<svg width="16" height="16" viewBox="0 0 16 16" fill="none" xmlns="http://www.w3.org/2000/svg">
<path d="M8 14.7812C11.7392 14.7812 14.7812 11.7392 14.7812 8C14.7812 4.26081 11.7392 1.21875 8 1.21875C4.26081 1.21875 1.21875 4.26081 1.21875 8C1.21875 11.7392 4.26081 14.7812 8 14.7812ZM8 16C3.58172 16 0 12.4183 0 8C0 3.58172 3.58172 0 8 0C12.4183 0 16 3.58172 16 8C16 12.4183 12.4183 16 8 16Z" fill="white"/>
<path d="M8.00007 4.4187C6.02536 4.4187 4.41882 6.02524 4.41882 7.99995C4.41882 9.97466 6.02536 11.5812 8.00007 11.5812C9.97478 11.5812 11.5813 9.97466 11.5813 7.99995C11.5813 6.02524 9.97478 4.4187 8.00007 4.4187ZM8.00007 3.19995C10.651 3.19995 12.8001 5.34898 12.8001 7.99995C12.8001 10.6509 10.651 12.8 8.00007 12.8C5.34911 12.8 3.20007 10.6509 3.20007 7.99995C3.20007 5.34898 5.34911 3.19995 8.00007 3.19995Z" fill="white"/>
<path d="M8.00009 7.61865C7.78986 7.61865 7.61884 7.78968 7.61884 7.9999C7.61884 8.21012 7.78986 8.38115 8.00009 8.38115C8.21031 8.38115 8.38134 8.21012 8.38134 7.9999C8.38134 7.78968 8.21031 7.61865 8.00009 7.61865ZM8.00009 6.3999C8.88374 6.3999 9.60009 7.11625 9.60009 7.9999C9.60009 8.88356 8.88374 9.5999 8.00009 9.5999C7.11643 9.5999 6.40009 8.88356 6.40009 7.9999C6.40009 7.11625 7.11643 6.3999 8.00009 6.3999Z" fill="white"/>
</svg>
