<svg width="16" height="16" viewBox="0 0 16 16" fill="none" xmlns="http://www.w3.org/2000/svg">
<path fill-rule="evenodd" clip-rule="evenodd" d="M5.68966 0C5.30877 0 5 0.317471 5 0.709091V12.2909C5 12.6825 5.30877 13 5.68965 13H14.3103C14.6912 13 15 12.6825 15 12.2909V4.35455C15 4.15874 14.8456 4 14.6552 4H10.3218C10.1949 4 10.092 3.89418 10.092 3.76364V0.354545C10.092 0.158735 9.93757 0 9.74713 0H5.68966Z" fill="white"/>
<path fill-rule="evenodd" clip-rule="evenodd" d="M14.4 3C14.5922 3 14.6738 2.75532 14.52 2.64L11.32 0.24C11.1882 0.141115 11 0.235191 11 0.4V2.8C11 2.91046 11.0895 3 11.2 3H14.4Z" fill="white"/>
<path fill-rule="evenodd" clip-rule="evenodd" d="M4 3H1.68966C1.30877 3 1 3.31747 1 3.70909V15.2909C1 15.6825 1.30877 16 1.68965 16H10.3103C10.6912 16 11 15.6825 11 15.2909V14H5C4.44772 14 4 13.5523 4 13V3Z" fill="white"/>
</svg>
