<svg width="20" height="20" viewBox="0 0 20 20" fill="none" xmlns="http://www.w3.org/2000/svg">
<mask id="path-1-inside-1_2452_9795" fill="white">
<path fill-rule="evenodd" clip-rule="evenodd" d="M18.2093 11.1741C20.3655 9.03383 20.3655 5.5638 18.2093 3.42355C16.0531 1.2833 12.5573 1.2833 10.4011 3.42355L9.91322 3.9078L9.42536 3.42355C7.26918 1.2833 3.77332 1.2833 1.61714 3.42355C-0.539045 5.5638 -0.539046 9.03383 1.61714 11.1741L7.26942 16.7846C7.28299 16.7983 7.29662 16.8119 7.31032 16.8255C8.02487 17.5348 8.96013 17.8915 9.89666 17.8956C10.8442 17.8999 11.7931 17.5432 12.5161 16.8255C12.5299 16.8119 12.5436 16.7982 12.5572 16.7845L18.2093 11.1741Z"/>
</mask>
<path d="M18.2093 3.42355L17.1526 4.48813L18.2093 3.42355ZM18.2093 11.1741L17.1526 10.1095L18.2093 11.1741ZM10.4011 3.42355L11.4578 4.48813L11.4578 4.48813L10.4011 3.42355ZM9.91322 3.9078L8.8565 4.97239L9.91322 6.0213L10.9699 4.97239L9.91322 3.9078ZM9.42536 3.42355L10.4821 2.35896V2.35896L9.42536 3.42355ZM1.61714 3.42355L2.67386 4.48813L1.61714 3.42355ZM1.61714 11.1741L0.560415 12.2387H0.560415L1.61714 11.1741ZM7.26942 16.7846L8.33435 15.7282L8.32614 15.72L7.26942 16.7846ZM7.31032 16.8255L8.36704 15.7609L8.36702 15.7609L7.31032 16.8255ZM9.89666 17.8956L9.90338 16.3956L9.90325 16.3956L9.89666 17.8956ZM12.5161 16.8255L11.4594 15.7609L11.4594 15.7609L12.5161 16.8255ZM12.5572 16.7845L11.5004 15.7198L11.4922 15.7281L12.5572 16.7845ZM17.1526 4.48813C18.7177 6.04171 18.7177 8.55592 17.1526 10.1095L19.266 12.2387C22.0132 9.51175 22.0132 5.08589 19.266 2.35896L17.1526 4.48813ZM11.4578 4.48813C13.0291 2.92843 15.5813 2.92843 17.1526 4.48813L19.266 2.35896C16.525 -0.361841 12.0854 -0.361842 9.34436 2.35896L11.4578 4.48813ZM10.9699 4.97239L11.4578 4.48813L9.34436 2.35896L8.8565 2.84322L10.9699 4.97239ZM10.9699 2.84322L10.4821 2.35896L8.36864 4.48813L8.8565 4.97239L10.9699 2.84322ZM10.4821 2.35896C7.74103 -0.361841 3.30147 -0.361841 0.560416 2.35896L2.67386 4.48813C4.24516 2.92844 6.79733 2.92844 8.36864 4.48813L10.4821 2.35896ZM0.560416 2.35896C-2.1868 5.08589 -2.18681 9.51175 0.560415 12.2387L2.67386 10.1095C1.10871 8.55592 1.10871 6.04171 2.67386 4.48813L0.560416 2.35896ZM0.560415 12.2387L6.2127 17.8492L8.32614 15.72L2.67386 10.1095L0.560415 12.2387ZM8.36702 15.7609C8.35608 15.7501 8.34517 15.7392 8.33432 15.7282L6.20452 17.841C6.2208 17.8574 6.23716 17.8738 6.25361 17.8901L8.36702 15.7609ZM9.90325 16.3956C9.34265 16.3932 8.78993 16.1807 8.36704 15.7609L6.2536 17.8901C7.25982 18.8889 8.57761 19.3898 9.89007 19.3956L9.90325 16.3956ZM9.88994 19.3956C11.2177 19.4015 12.5547 18.9007 13.5728 17.8901L11.4594 15.7609C11.0316 16.1856 10.4707 16.3982 9.90338 16.3956L9.88994 19.3956ZM13.5728 17.8901C13.5893 17.8737 13.6058 17.8573 13.6221 17.8408L11.4922 15.7281C11.4813 15.7391 11.4704 15.75 11.4594 15.7609L13.5728 17.8901ZM17.1526 10.1095L11.5005 15.7199L13.6139 17.849L19.266 12.2387L17.1526 10.1095Z" fill="white" mask="url(#path-1-inside-1_2452_9795)"/>
</svg>
