<svg width="11" height="11" viewBox="0 0 11 11" fill="none" xmlns="http://www.w3.org/2000/svg">
<path d="M6.12385 6.58435C5.80192 6.95218 5.19808 6.95218 4.87615 6.58435L0.182158 1.22098C-0.245792 0.732 0.128216 -5.51253e-08 0.806004 0L10.194 7.63537e-07C10.8718 8.18662e-07 11.2458 0.732001 10.8178 1.22098L6.12385 6.58435Z" fill="white"/>
<path d="M4.29297 4.80241C4.29297 4.52684 4.53309 4.30346 4.82929 4.30346H6.43826C6.73446 4.30346 6.97458 4.52684 6.97458 4.80241V9.30263C6.97458 9.4542 6.90052 9.59756 6.77329 9.69225L5.16433 10.8897C4.81316 11.1511 4.29297 10.9185 4.29297 10.5001V4.80241Z" fill="white"/>
</svg>
