<svg width="39" height="39" viewBox="0 0 39 39" fill="none" xmlns="http://www.w3.org/2000/svg">
<path d="M17.06 19.5C18.9216 17.4688 16.8347 4.0625 24.7491 0C20.0936 12.1875 28.939 11.8521 31.9569 20.3125C37.0288 34.5312 23.0624 38.5937 23.0624 38.5937C23.0624 38.5937 29 32 28.3652 26.8125C27.7966 22.1652 22.7787 17.0625 22.7787 17.0625C22.7787 17.0625 25.303 23.0705 18.5887 26C16.5335 26.8967 14.6712 28.6305 14.414 30.9457C13.9901 34.7609 17.9413 39 17.9413 39C17.9413 39 10.3519 38.2926 7.74771 34.5312C2.40367 26.8125 5.66152 20.7188 12.6449 9.75C10.3171 15.4375 14.1374 22.689 17.06 19.5Z" fill="white"/>
</svg>
