<svg width="20" height="20" viewBox="0 0 20 20" fill="none" xmlns="http://www.w3.org/2000/svg">
<path fill-rule="evenodd" clip-rule="evenodd" d="M18.2093 11.174C20.3655 9.03371 20.3655 5.56368 18.2093 3.42343C16.0531 1.28317 12.5573 1.28317 10.4011 3.42343L9.91322 3.90768L9.42536 3.42343C7.26918 1.28318 3.77332 1.28318 1.61714 3.42343C-0.539045 5.56368 -0.539046 9.03371 1.61714 11.174L7.26942 16.7845C7.28299 16.7982 7.29662 16.8118 7.31032 16.8254C8.02487 17.5347 8.96013 17.8914 9.89666 17.8955C10.8442 17.8997 11.7931 17.543 12.5161 16.8254C12.5299 16.8118 12.5436 16.7981 12.5572 16.7843L18.2093 11.174Z" fill="white"/>
</svg>
