<svg width="16" height="16" viewBox="0 0 16 16" fill="none" xmlns="http://www.w3.org/2000/svg">
<path fill-rule="evenodd" clip-rule="evenodd" d="M5.84271 13.2381C6.53137 13.3902 7.2548 13.4713 8.00098 13.4713C11.3623 13.4713 14.2619 11.8266 15.6012 9.45161C16.1355 8.50396 16.1355 7.33062 15.6012 6.38296C14.9588 5.24387 13.9576 4.27277 12.7186 3.57056L11.3519 5.49208C11.8602 6.16632 12.1617 7.00644 12.1617 7.91728C12.1617 10.1385 10.3687 11.9391 8.157 11.9391C7.72101 11.9391 7.30129 11.8692 6.90837 11.7398L5.84271 13.2381ZM7.7926 10.4966C7.91166 10.5134 8.03332 10.5221 8.157 10.5221C9.58943 10.5221 10.7506 9.35587 10.7506 7.91728C10.7506 7.49137 10.6489 7.08934 10.4684 6.73437L7.7926 10.4966ZM8.9396 5.43317L6.07135 9.46596C5.75213 9.03308 5.56335 8.49732 5.56335 7.91728C5.56335 6.4787 6.72457 5.3125 8.157 5.3125C8.42974 5.3125 8.69266 5.35478 8.9396 5.43317ZM9.78654 4.24235C9.28873 4.01937 8.73728 3.89542 8.157 3.89542C5.94529 3.89542 4.15234 5.69607 4.15234 7.91728C4.15234 8.97554 4.55932 9.93834 5.22466 10.6564L3.86639 12.5662C2.35814 11.8541 1.14108 10.7644 0.400786 9.45162C-0.133595 8.50396 -0.133595 7.33062 0.400786 6.38296C1.74005 4.00795 4.6397 2.36328 8.00098 2.36328C8.99481 2.36328 9.94829 2.50706 10.833 2.77099L9.78654 4.24235Z" fill="white"/>
<line y1="-0.5" x2="18.4061" y2="-0.5" transform="matrix(-0.579588 0.81491 -0.812552 -0.582888 12.8037 0)" stroke="white"/>
<line y1="-0.5" x2="18.4061" y2="-0.5" transform="matrix(-0.579588 0.81491 -0.812552 -0.582888 12.8037 0)" stroke="white"/>
</svg>
