<svg width="16" height="16" viewBox="0 0 16 16" fill="none" xmlns="http://www.w3.org/2000/svg">
<path fill-rule="evenodd" clip-rule="evenodd" d="M0.402713 9.4123C-0.131414 8.4682 -0.131085 7.29944 0.403574 6.35564C1.74353 3.99029 4.64371 2.35287 8.00506 2.35382C11.3664 2.35476 14.2657 3.99381 15.6043 6.35992C16.1384 7.30403 16.1381 8.47278 15.6034 9.41658C14.2635 11.7819 11.3633 13.4194 8.00194 13.4184C4.64059 13.4175 1.74134 11.7784 0.402713 9.4123ZM8.15879 10.4808C9.59126 10.4812 10.7528 9.31984 10.7532 7.88688C10.7536 6.45392 9.59272 5.29195 8.16026 5.29155C6.7278 5.29114 5.56623 6.45246 5.56583 7.88542C5.56542 9.31838 6.72633 10.4804 8.15879 10.4808ZM8.1584 11.8923C10.3702 11.8929 12.1636 10.0998 12.1643 7.88728C12.1649 5.67475 10.3724 3.88063 8.16065 3.88001C5.94889 3.87938 4.1554 5.67249 4.15478 7.88502C4.15416 10.0976 5.94664 11.8917 8.1584 11.8923Z" fill="white"/>
</svg>
