<svg width="13" height="13" viewBox="0 0 13 13" fill="none" xmlns="http://www.w3.org/2000/svg">
<path d="M1 2H3L8 11H10" stroke="white" stroke-width="2" stroke-linecap="round" stroke-linejoin="round"/>
<path fill-rule="evenodd" clip-rule="evenodd" d="M3.78406 7.52956L2.4116 10H1C0.447715 10 0 10.4477 0 11C0 11.5523 0.447715 12 1 12H3C3.36317 12 3.69779 11.8031 3.87416 11.4856L4.92802 9.58869L3.78406 7.52956ZM7.21594 5.47044L8.5884 3H10C10.5523 3 11 2.55229 11 2C11 1.44771 10.5523 1 10 1H8C7.63683 1 7.30221 1.19689 7.12584 1.51436L6.07198 3.41131L7.21594 5.47044Z" fill="white"/>
<path d="M9.5 0.647214V3.35279C9.5 3.65014 9.81292 3.84354 10.0789 3.71056L12.6056 2.44721C12.9741 2.26295 12.9741 1.73705 12.6056 1.55279L10.0789 0.289443C9.81293 0.156463 9.5 0.349861 9.5 0.647214Z" fill="white"/>
<path d="M9.5 9.64721V12.3528C9.5 12.6501 9.81292 12.8435 10.0789 12.7106L12.6056 11.4472C12.9741 11.263 12.9741 10.737 12.6056 10.5528L10.0789 9.28944C9.81293 9.15646 9.5 9.34986 9.5 9.64721Z" fill="white"/>
</svg>
