<svg width="13" height="13" viewBox="0 0 13 13" fill="none" xmlns="http://www.w3.org/2000/svg">
<path fill-rule="evenodd" clip-rule="evenodd" d="M1.75 2.89624C1.33579 2.89624 1 3.23203 1 3.64624C1 4.06045 1.33579 4.39624 1.75 4.39624H3.64885C4.10589 4.39624 4.52649 4.64568 4.74569 5.04672L6.69289 8.6092C7.17514 9.4915 8.10047 10.0403 9.10596 10.0403H9.20508V10.6231C9.20508 10.93 9.58508 11.1078 9.85711 10.9282L11.8279 9.62718C12.0553 9.477 12.0553 9.16714 11.8279 9.01696L9.85711 7.71592C9.58508 7.53633 9.20508 7.71415 9.20508 8.02103V8.54026H9.10596C8.64892 8.54026 8.22831 8.29082 8.00911 7.88978L6.06191 4.3273C5.57966 3.445 4.65434 2.89624 3.64885 2.89624H1.75Z" fill="white"/>
<path fill-rule="evenodd" clip-rule="evenodd" d="M11.8278 3.98309C12.0553 3.8329 12.0553 3.52305 11.8278 3.37287L9.85704 2.07183C9.585 1.89223 9.20501 2.07005 9.20501 2.37694V2.89618H9.10547C8.3222 2.89618 7.58756 3.22919 7.07314 3.79347L7.95879 5.13783L8.00862 5.04666C8.22783 4.64562 8.64843 4.39618 9.10547 4.39618H9.20501V4.97902C9.20501 5.2859 9.585 5.46372 9.85704 5.28413L11.8278 3.98309ZM4.74521 7.88972L4.85571 7.68756L5.75697 9.05561C5.24039 9.67268 4.47121 10.0402 3.64836 10.0402H1.74951C1.3353 10.0402 0.999512 9.70441 0.999512 9.2902C0.999512 8.87599 1.3353 8.5402 1.74951 8.5402H3.64836C4.1054 8.5402 4.526 8.29076 4.74521 7.88972Z" fill="white"/>
</svg>
