<svg width="11" height="11" viewBox="0 0 11 11" fill="none" xmlns="http://www.w3.org/2000/svg">
<rect x="4.75781" width="6.24145" height="1.57149" rx="0.785744" fill="white"/>
<rect x="4.75781" y="3.14307" width="5.20121" height="1.57149" rx="0.785744" fill="white"/>
<rect x="4.75781" y="6.28589" width="4.16097" height="1.57149" rx="0.785744" fill="white"/>
<rect x="4.75781" y="9.42896" width="3.12073" height="1.57149" rx="0.785744" fill="white"/>
<path fill-rule="evenodd" clip-rule="evenodd" d="M1.87893 0C1.49922 0 1.19141 0.307817 1.19141 0.687527V7.00027H0.455326C0.105338 7.00027 -0.113404 7.42174 0.0615895 7.75892L1.43967 10.4142C1.61466 10.7514 2.05215 10.7514 2.22714 10.4142L3.60522 7.75892C3.78021 7.42174 3.56147 7.00027 3.21148 7.00027H2.56646V0.687527C2.56646 0.307816 2.25864 0 1.87893 0Z" fill="white"/>
</svg>
