<svg width="16" height="16" viewBox="0 0 16 16" fill="none" xmlns="http://www.w3.org/2000/svg">
<path d="M3.67379 6.96202C4.08163 6.94215 4.55273 6.99737 6.58079 7.88774C8.60812 8.77736 10.2637 8.95002 9.59603 8.10962C8.92835 7.26921 6.82888 7.294 5.36985 6.00904C3.91155 4.72301 3.66346 3.63608 4.72642 3.85802C5.7902 4.08108 10.8571 7.09668 10.7341 6.40468C10.6104 5.71272 8.26138 4.47636 7.81754 3.3887C7.37369 2.30105 7.91616 1.11475 9.59603 2.96874C11.2766 4.82236 14.2853 7.48121 14.5893 7.6403C14.8933 7.7994 15.776 8.48024 15.1333 9.32055C14.4899 10.1612 14.1704 10.1859 14.392 10.5573C14.6143 10.9272 15.8754 12.8058 15.9239 13.2516C15.9732 13.6962 16.172 14.4872 15.628 14.2645C15.0839 14.0418 12.0672 10.4086 13.1066 12.5099C14.1439 14.6112 14.4899 15.5505 12.9573 14.4618C11.4246 13.3749 12.1673 12.9792 10.734 13.2516C9.30006 13.5228 8.55877 13.3009 7.94031 12.8559C7.32184 12.4109 7.24908 11.9903 6.13599 11.9655C5.02291 11.9408 4.18224 12.1886 3.83559 13.2515C3.49031 14.314 1.06838 15.5752 2.00772 13.5729C2.94777 11.5702 3.19437 10.7052 2.00772 12.6578C0.821815 14.6112 -0.192587 14.5615 0.0311624 13.5729C0.252724 12.5839 1.06984 10.6805 1.83474 10.1866C2.60102 9.69154 3.04497 9.24655 2.60104 8.67861C2.15713 8.10959 2.01439 7.7643 2.43392 7.39365C2.85345 7.02299 3.26451 6.98155 3.67379 6.96202Z" fill="white"/>
</svg>
