<svg width="11" height="11" viewBox="0 0 11 11" fill="none" xmlns="http://www.w3.org/2000/svg">
<path fill-rule="evenodd" clip-rule="evenodd" d="M5.90567 0.26938C5.73318 0.096899 5.49925 1.25982e-07 5.25533 1.19272e-07L0.919721 0C0.411774 -1.39736e-08 5.77396e-07 0.411773 5.16844e-07 0.919721L0 5.25532C-2.90781e-08 5.49925 0.0968988 5.73318 0.26938 5.90566L5.09434 10.7306C5.45351 11.0898 6.03584 11.0898 6.39502 10.7306L10.7306 6.39502C11.0898 6.03584 11.0898 5.45351 10.7306 5.09434L5.90567 0.26938ZM2.24149 1.09163C2.52181 1.37194 2.52181 1.82642 2.24149 2.10674C1.96118 2.38705 1.5067 2.38705 1.22638 2.10674C0.94607 1.82642 0.94607 1.37194 1.22638 1.09163C1.5067 0.811315 1.96118 0.811315 2.24149 1.09163Z" fill="white"/>
</svg>
