<svg width="512" height="512" viewBox="0 0 512 512" fill="none" xmlns="http://www.w3.org/2000/svg">
<g clip-path="url(#clip0_2356_9579)">
<path d="M98.2201 54.3611C-13.1912 141.454 -32.905 302.374 54.1881 413.785C141.281 525.196 302.201 544.91 413.612 457.817C525.023 370.724 544.737 209.804 457.644 98.3931C370.551 -13.0182 209.631 -32.732 98.2201 54.3611Z" fill="#262339"/>
<path opacity="0.35" d="M152.662 106.461C157.048 102.571 162.026 99.4762 167.386 97.3074C170.865 94.8904 174.611 92.9257 178.541 91.4572C182.727 89.2115 187.186 87.5799 191.793 86.6087C196.473 84.1825 201.476 82.5164 206.629 81.6682C210.084 80.4301 213.654 79.581 217.277 79.1352C220.308 78.3348 223.401 77.8266 226.518 77.6171C230.097 76.879 233.74 76.5417 237.383 76.6109C242.538 75.7645 247.783 75.7454 252.936 76.5542C258.642 75.8816 264.411 76.2157 270.001 77.5423C274.166 77.5654 278.31 78.1204 282.34 79.1949C287.002 79.7747 291.561 81.0241 295.889 82.9077C304.182 84.0497 312.066 87.3144 318.843 92.4124C325.619 97.5104 331.079 104.284 334.737 112.132C338.395 119.981 340.138 128.661 339.813 137.404C339.487 146.147 337.102 154.682 332.87 162.251C326.625 173.407 316.726 181.832 305.014 185.956C293.302 190.079 280.578 189.621 269.21 184.665C267.202 184.387 265.213 183.987 263.251 183.465C261.471 183.243 259.704 182.922 257.958 182.505C255.485 182.494 253.018 182.293 250.576 181.904C248.341 182.17 246.092 182.282 243.845 182.238C242.297 182.498 240.741 182.68 239.177 182.783C237.844 183.056 236.498 183.278 235.151 183.446C233.633 183.846 232.099 184.173 230.549 184.428C228.42 185.191 226.247 185.808 224.042 186.273C222.225 187.216 220.356 188.047 218.447 188.761C216.846 189.618 215.204 190.387 213.528 191.065C211.464 192.498 209.305 193.774 207.067 194.883C205.35 196.41 203.539 197.817 201.645 199.093C200.494 200.208 199.294 201.271 198.052 202.268C197.093 203.276 196.089 204.243 195.058 205.169C194.16 206.214 193.225 207.219 192.252 208.182C190.977 209.83 189.61 211.399 188.158 212.879C187.121 214.702 185.981 216.459 184.746 218.142C183.846 219.769 182.865 221.346 181.808 222.867C180.821 225.24 179.669 227.536 178.362 229.735C177.712 231.988 176.921 234.195 175.994 236.341C175.604 237.924 175.149 239.498 174.622 241.041C174.34 242.427 174.008 243.806 173.615 245.169C172.514 252.355 170.015 259.237 166.272 265.387C162.53 271.537 157.623 276.826 151.856 280.925C146.089 285.025 139.584 287.848 132.745 289.22C125.905 290.592 118.876 290.484 112.092 288.903C105.309 287.321 98.9147 284.3 93.3065 280.026C87.6982 275.752 82.9949 270.315 79.4875 264.054C75.9801 257.792 73.7433 250.838 72.9155 243.622C72.0877 236.407 72.6865 229.082 74.6749 222.103C75.1693 218.877 75.9453 215.704 76.9931 212.623C77.7575 208.895 78.8995 205.261 80.3998 201.782C81.6928 196.495 83.7502 191.441 86.5008 186.796C88.1627 181.047 90.7385 175.627 94.1201 170.763C95.7871 166.763 97.9156 162.988 100.458 159.524C102.812 155.265 105.714 151.363 109.083 147.926C111.49 143.702 114.441 139.84 117.852 136.451C119.819 133.912 122.003 131.564 124.378 129.437C126.472 127.005 128.773 124.776 131.254 122.781C133.834 120.079 136.681 117.673 139.748 115.602C143.584 111.887 147.937 108.805 152.658 106.461L152.662 106.461Z" fill="#E65836"/>
<path d="M159.707 293.236C181.56 274.768 184.335 242.112 165.904 220.294C147.474 198.477 114.817 195.762 92.9633 214.229C71.1098 232.696 68.3351 265.353 86.7659 287.17C105.197 308.987 137.854 311.703 159.707 293.236Z" fill="#E65836"/>
<path opacity="0.35" d="M200.191 329.024C206.767 325.529 213.984 323.568 221.342 323.276C228.7 322.984 236.023 324.369 242.801 327.334C244.803 327.61 246.786 328.01 248.741 328.532C250.526 328.754 252.298 329.074 254.05 329.49C256.525 329.504 258.995 329.704 261.441 330.089C263.674 329.824 265.92 329.714 268.165 329.76C269.712 329.501 271.266 329.319 272.826 329.215C274.162 328.94 275.504 328.719 276.851 328.553C278.366 328.154 279.895 327.827 281.44 327.573C283.574 326.807 285.753 326.19 287.964 325.724C289.775 324.783 291.638 323.956 293.543 323.246C295.147 322.385 296.792 321.614 298.473 320.935C300.539 319.5 302.701 318.222 304.942 317.111C306.658 315.587 308.468 314.181 310.359 312.904C311.512 311.789 312.708 310.732 313.948 309.732C314.908 308.724 315.906 307.757 316.941 306.833C317.838 305.787 318.772 304.784 319.744 303.822C321.021 302.171 322.39 300.601 323.845 299.119C324.88 297.302 326.016 295.549 327.247 293.87C328.148 292.239 329.131 290.658 330.19 289.133C331.179 286.757 332.331 284.459 333.639 282.257C334.289 280.003 335.08 277.796 336.007 275.65C336.392 274.065 336.85 272.5 337.372 270.956C337.658 269.567 337.994 268.191 338.38 266.828C340.459 253.149 347.57 240.835 358.194 232.517C358.915 231.953 359.654 231.405 360.412 230.875C369.115 224.774 379.393 221.615 389.845 221.829C400.297 222.043 410.416 225.619 418.823 232.07C427.229 238.522 433.516 247.535 436.826 257.882C440.136 268.23 440.308 279.408 437.319 289.895C436.827 293.123 436.051 296.298 435.003 299.38C434.24 303.106 433.099 306.738 431.599 310.214C430.306 315.504 428.248 320.559 425.497 325.206C423.833 330.96 421.254 336.385 417.868 341.252C416.206 345.241 414.084 349.006 411.551 352.462C409.195 356.729 406.289 360.638 402.915 364.081C400.506 368.309 397.552 372.173 394.138 375.563C392.175 378.097 389.995 380.438 387.627 382.56C385.532 384.993 383.229 387.222 380.748 389.218C378.168 391.92 375.32 394.327 372.253 396.398C368.417 400.113 364.062 403.196 359.341 405.541C354.951 409.434 349.969 412.532 344.605 414.704C341.135 417.113 337.398 419.072 333.479 420.537C329.288 422.787 324.823 424.421 320.21 425.393C315.524 427.824 310.514 429.493 305.353 430.34C301.906 431.572 298.346 432.418 294.732 432.862C291.7 433.661 288.605 434.171 285.487 434.383C281.911 435.123 278.271 435.461 274.63 435.393C269.472 436.241 264.224 436.259 259.068 435.446C253.358 436.123 247.584 435.787 241.991 434.454C237.835 434.433 233.7 433.88 229.679 432.806C225.012 432.23 220.447 430.981 216.114 429.095C205.35 427.624 195.338 422.587 187.544 414.721C179.75 406.855 174.585 396.574 172.804 385.385C171.024 374.195 172.723 362.686 177.651 352.543C182.579 342.4 190.478 334.156 200.19 329.021L200.191 329.024Z" fill="#7DABFF"/>
<path d="M419.05 297.764C440.903 279.296 443.678 246.64 425.247 224.823C406.816 203.005 374.16 200.29 352.306 218.757C330.453 237.224 327.678 269.881 346.109 291.698C364.539 313.515 397.196 316.231 419.05 297.764Z" fill="#7DABFF"/>
</g>
<defs>
<clipPath id="clip0_2356_9579">
<rect width="512" height="512" fill="white"/>
</clipPath>
</defs>
</svg>
