<svg width="716" height="99" viewBox="0 0 716 99" fill="none" xmlns="http://www.w3.org/2000/svg">
<rect x="474" y="84" width="15" height="15" fill="#F2F2F2"/>
<path fill-rule="evenodd" clip-rule="evenodd" d="M391 59.5227L450.523 -7.09801e-07L480.221 -1.06395e-06L410.221 70L391 70L391 59.5227Z" fill="#4D93FC"/>
<rect x="426" y="30" width="21" height="69" fill="#4D93FC"/>
<rect x="121" width="21" height="99" fill="#F2F2F2"/>
<rect x="176" y="40" width="21" height="51" transform="rotate(90 176 40)" fill="#F2F2F2"/>
<path d="M200 47L179 26L200 26L200 47Z" fill="#F2F2F2"/>
<path d="M200 21L179 7.147e-08L200 1.90735e-06L200 21Z" fill="#F2F2F2"/>
<path fill-rule="evenodd" clip-rule="evenodd" d="M89.2487 50L65 50L81.7432 21L105.992 21L89.2487 50Z" fill="#F2F2F2"/>
<path fill-rule="evenodd" clip-rule="evenodd" d="M34.0637 40L58.3124 40L24.2487 99L0 99L34.0637 40Z" fill="#F2F2F2"/>
<rect x="106" width="21" height="106" transform="rotate(90 106 0)" fill="#F2F2F2"/>
<path fill-rule="evenodd" clip-rule="evenodd" d="M343 63.5227L349.523 57L378 57L378 58.2212L343 93.2212L343 63.5227Z" fill="#F54F51"/>
<rect x="314" y="65" width="21" height="34" fill="#F54F51"/>
<rect x="378" y="36" width="21" height="69" transform="rotate(90 378 36)" fill="#F54F51"/>
<path fill-rule="evenodd" clip-rule="evenodd" d="M215 88.5227L282.523 21L305 21L305 28.2212L234.221 99L215 99L215 88.5227Z" fill="#F54F51"/>
<rect x="305" width="21" height="90" transform="rotate(90 305 0)" fill="#F54F51"/>
<rect x="553" width="21" height="39" transform="rotate(90 553 0)" fill="#F2F2F2"/>
<rect x="553" y="32" width="21" height="39" transform="rotate(90 553 32)" fill="#F2F2F2"/>
<path d="M606 49L585 28L606 28L606 49Z" fill="#F2F2F2"/>
<path d="M605 21L584 7.147e-08L605 1.90735e-06L605 21Z" fill="#F2F2F2"/>
<path fill-rule="evenodd" clip-rule="evenodd" d="M605 81V59H585V74C585 76.7615 582.761 79 580 79H514V99H587C596.941 99 605 90.9412 605 81Z" fill="#F2F2F2"/>
<rect x="663" width="21" height="39" transform="rotate(90 663 0)" fill="#F2F2F2"/>
<rect x="663" y="32" width="21" height="39" transform="rotate(90 663 32)" fill="#F2F2F2"/>
<path d="M716 49L695 28L716 28L716 49Z" fill="#F2F2F2"/>
<path d="M715 21L694 7.147e-08L715 1.90735e-06L715 21Z" fill="#F2F2F2"/>
<path fill-rule="evenodd" clip-rule="evenodd" d="M715 81V59H695V74C695 76.7614 692.761 79 690 79L624 79V99L697 99C706.941 99 715 90.9411 715 81Z" fill="#F2F2F2"/>
</svg>
